<mxfile host="app.diagrams.net" agent="Mozilla/5.0 (Windows NT 10.0; Win64; x64) AppleWebKit/537.36 (KHTML, like Gecko) Chrome/137.0.0.0 Safari/537.36 Edg/137.0.0.0" version="27.1.6">
  <diagram name="Page-1" id="S95MZUu6aC9b7Ulhot-2">
    <mxGraphModel dx="5112" dy="2260" grid="1" gridSize="10" guides="1" tooltips="1" connect="1" arrows="1" fold="1" page="1" pageScale="1" pageWidth="850" pageHeight="1100" math="0" shadow="0">
      <root>
        <mxCell id="0" />
        <mxCell id="1" parent="0" />
        <mxCell id="Y3LBO5aBJdapkFDMhHXi-56" value="" style="group" parent="1" vertex="1" connectable="0">
          <mxGeometry x="-20" y="-360" width="820" height="1000" as="geometry" />
        </mxCell>
        <mxCell id="Y3LBO5aBJdapkFDMhHXi-1" value="&amp;lt;&amp;lt;enumeration&amp;gt;&amp;gt;&lt;br&gt;&lt;b&gt;Priority&lt;/b&gt;" style="swimlane;fontStyle=0;align=center;verticalAlign=top;childLayout=stackLayout;horizontal=1;startSize=40;horizontalStack=0;resizeParent=1;resizeParentMax=0;resizeLast=0;collapsible=0;marginBottom=0;html=1;whiteSpace=wrap;" parent="Y3LBO5aBJdapkFDMhHXi-56" vertex="1">
          <mxGeometry x="40" y="310" width="140" height="130" as="geometry" />
        </mxCell>
        <mxCell id="Y3LBO5aBJdapkFDMhHXi-2" value="Low" style="text;html=1;strokeColor=none;fillColor=none;align=left;verticalAlign=middle;spacingLeft=4;spacingRight=4;overflow=hidden;rotatable=0;points=[[0,0.5],[1,0.5]];portConstraint=eastwest;whiteSpace=wrap;" parent="Y3LBO5aBJdapkFDMhHXi-1" vertex="1">
          <mxGeometry y="40" width="140" height="30" as="geometry" />
        </mxCell>
        <mxCell id="Y3LBO5aBJdapkFDMhHXi-9" value="Medium" style="text;html=1;strokeColor=none;fillColor=none;align=left;verticalAlign=middle;spacingLeft=4;spacingRight=4;overflow=hidden;rotatable=0;points=[[0,0.5],[1,0.5]];portConstraint=eastwest;whiteSpace=wrap;" parent="Y3LBO5aBJdapkFDMhHXi-1" vertex="1">
          <mxGeometry y="70" width="140" height="30" as="geometry" />
        </mxCell>
        <mxCell id="Y3LBO5aBJdapkFDMhHXi-10" value="High" style="text;html=1;strokeColor=none;fillColor=none;align=left;verticalAlign=middle;spacingLeft=4;spacingRight=4;overflow=hidden;rotatable=0;points=[[0,0.5],[1,0.5]];portConstraint=eastwest;whiteSpace=wrap;" parent="Y3LBO5aBJdapkFDMhHXi-1" vertex="1">
          <mxGeometry y="100" width="140" height="30" as="geometry" />
        </mxCell>
        <mxCell id="Y3LBO5aBJdapkFDMhHXi-3" value="&amp;lt;&amp;lt;enumeration&amp;gt;&amp;gt;&lt;br&gt;&lt;b&gt;TasksStatus&lt;/b&gt;" style="swimlane;fontStyle=0;align=center;verticalAlign=top;childLayout=stackLayout;horizontal=1;startSize=40;horizontalStack=0;resizeParent=1;resizeParentMax=0;resizeLast=0;collapsible=0;marginBottom=0;html=1;whiteSpace=wrap;" parent="Y3LBO5aBJdapkFDMhHXi-56" vertex="1">
          <mxGeometry x="630" y="250" width="140" height="190" as="geometry" />
        </mxCell>
        <mxCell id="Y3LBO5aBJdapkFDMhHXi-4" value="ToDo" style="text;html=1;strokeColor=none;fillColor=none;align=left;verticalAlign=middle;spacingLeft=4;spacingRight=4;overflow=hidden;rotatable=0;points=[[0,0.5],[1,0.5]];portConstraint=eastwest;whiteSpace=wrap;" parent="Y3LBO5aBJdapkFDMhHXi-3" vertex="1">
          <mxGeometry y="40" width="140" height="30" as="geometry" />
        </mxCell>
        <mxCell id="Y3LBO5aBJdapkFDMhHXi-21" value="InProgress" style="text;html=1;strokeColor=none;fillColor=none;align=left;verticalAlign=middle;spacingLeft=4;spacingRight=4;overflow=hidden;rotatable=0;points=[[0,0.5],[1,0.5]];portConstraint=eastwest;whiteSpace=wrap;" parent="Y3LBO5aBJdapkFDMhHXi-3" vertex="1">
          <mxGeometry y="70" width="140" height="30" as="geometry" />
        </mxCell>
        <mxCell id="Y3LBO5aBJdapkFDMhHXi-22" value="Done" style="text;html=1;strokeColor=none;fillColor=none;align=left;verticalAlign=middle;spacingLeft=4;spacingRight=4;overflow=hidden;rotatable=0;points=[[0,0.5],[1,0.5]];portConstraint=eastwest;whiteSpace=wrap;" parent="Y3LBO5aBJdapkFDMhHXi-3" vertex="1">
          <mxGeometry y="100" width="140" height="30" as="geometry" />
        </mxCell>
        <mxCell id="Y3LBO5aBJdapkFDMhHXi-23" value="Overdue" style="text;html=1;strokeColor=none;fillColor=none;align=left;verticalAlign=middle;spacingLeft=4;spacingRight=4;overflow=hidden;rotatable=0;points=[[0,0.5],[1,0.5]];portConstraint=eastwest;whiteSpace=wrap;" parent="Y3LBO5aBJdapkFDMhHXi-3" vertex="1">
          <mxGeometry y="130" width="140" height="30" as="geometry" />
        </mxCell>
        <mxCell id="Y3LBO5aBJdapkFDMhHXi-24" value="Late" style="text;html=1;strokeColor=none;fillColor=none;align=left;verticalAlign=middle;spacingLeft=4;spacingRight=4;overflow=hidden;rotatable=0;points=[[0,0.5],[1,0.5]];portConstraint=eastwest;whiteSpace=wrap;" parent="Y3LBO5aBJdapkFDMhHXi-3" vertex="1">
          <mxGeometry y="160" width="140" height="30" as="geometry" />
        </mxCell>
        <mxCell id="Y3LBO5aBJdapkFDMhHXi-5" value="&amp;lt;&amp;lt;enumeration&amp;gt;&amp;gt;&lt;br&gt;&lt;b&gt;Schedule&lt;/b&gt;" style="swimlane;fontStyle=0;align=center;verticalAlign=top;childLayout=stackLayout;horizontal=1;startSize=40;horizontalStack=0;resizeParent=1;resizeParentMax=0;resizeLast=0;collapsible=0;marginBottom=0;html=1;whiteSpace=wrap;" parent="Y3LBO5aBJdapkFDMhHXi-56" vertex="1">
          <mxGeometry x="410" y="80" width="140" height="190" as="geometry" />
        </mxCell>
        <mxCell id="Y3LBO5aBJdapkFDMhHXi-6" value="Yearly" style="text;html=1;strokeColor=none;fillColor=none;align=left;verticalAlign=middle;spacingLeft=4;spacingRight=4;overflow=hidden;rotatable=0;points=[[0,0.5],[1,0.5]];portConstraint=eastwest;whiteSpace=wrap;" parent="Y3LBO5aBJdapkFDMhHXi-5" vertex="1">
          <mxGeometry y="40" width="140" height="30" as="geometry" />
        </mxCell>
        <mxCell id="Y3LBO5aBJdapkFDMhHXi-17" value="Quarterly" style="text;html=1;strokeColor=none;fillColor=none;align=left;verticalAlign=middle;spacingLeft=4;spacingRight=4;overflow=hidden;rotatable=0;points=[[0,0.5],[1,0.5]];portConstraint=eastwest;whiteSpace=wrap;" parent="Y3LBO5aBJdapkFDMhHXi-5" vertex="1">
          <mxGeometry y="70" width="140" height="30" as="geometry" />
        </mxCell>
        <mxCell id="Y3LBO5aBJdapkFDMhHXi-18" value="Monthly" style="text;html=1;strokeColor=none;fillColor=none;align=left;verticalAlign=middle;spacingLeft=4;spacingRight=4;overflow=hidden;rotatable=0;points=[[0,0.5],[1,0.5]];portConstraint=eastwest;whiteSpace=wrap;" parent="Y3LBO5aBJdapkFDMhHXi-5" vertex="1">
          <mxGeometry y="100" width="140" height="30" as="geometry" />
        </mxCell>
        <mxCell id="Y3LBO5aBJdapkFDMhHXi-19" value="Weekly" style="text;html=1;strokeColor=none;fillColor=none;align=left;verticalAlign=middle;spacingLeft=4;spacingRight=4;overflow=hidden;rotatable=0;points=[[0,0.5],[1,0.5]];portConstraint=eastwest;whiteSpace=wrap;" parent="Y3LBO5aBJdapkFDMhHXi-5" vertex="1">
          <mxGeometry y="130" width="140" height="30" as="geometry" />
        </mxCell>
        <mxCell id="Y3LBO5aBJdapkFDMhHXi-20" value="Daily" style="text;html=1;strokeColor=none;fillColor=none;align=left;verticalAlign=middle;spacingLeft=4;spacingRight=4;overflow=hidden;rotatable=0;points=[[0,0.5],[1,0.5]];portConstraint=eastwest;whiteSpace=wrap;" parent="Y3LBO5aBJdapkFDMhHXi-5" vertex="1">
          <mxGeometry y="160" width="140" height="30" as="geometry" />
        </mxCell>
        <mxCell id="Y3LBO5aBJdapkFDMhHXi-7" value="&amp;lt;&amp;lt;enumeration&amp;gt;&amp;gt;&lt;br&gt;&lt;b&gt;Category&lt;/b&gt;" style="swimlane;fontStyle=0;align=center;verticalAlign=top;childLayout=stackLayout;horizontal=1;startSize=40;horizontalStack=0;resizeParent=1;resizeParentMax=0;resizeLast=0;collapsible=0;marginBottom=0;html=1;whiteSpace=wrap;" parent="Y3LBO5aBJdapkFDMhHXi-56" vertex="1">
          <mxGeometry x="210" y="80" width="140" height="250" as="geometry" />
        </mxCell>
        <mxCell id="Y3LBO5aBJdapkFDMhHXi-8" value="None" style="text;html=1;strokeColor=none;fillColor=none;align=left;verticalAlign=middle;spacingLeft=4;spacingRight=4;overflow=hidden;rotatable=0;points=[[0,0.5],[1,0.5]];portConstraint=eastwest;whiteSpace=wrap;" parent="Y3LBO5aBJdapkFDMhHXi-7" vertex="1">
          <mxGeometry y="40" width="140" height="30" as="geometry" />
        </mxCell>
        <mxCell id="Y3LBO5aBJdapkFDMhHXi-11" value="Education" style="text;html=1;strokeColor=none;fillColor=none;align=left;verticalAlign=middle;spacingLeft=4;spacingRight=4;overflow=hidden;rotatable=0;points=[[0,0.5],[1,0.5]];portConstraint=eastwest;whiteSpace=wrap;" parent="Y3LBO5aBJdapkFDMhHXi-7" vertex="1">
          <mxGeometry y="70" width="140" height="30" as="geometry" />
        </mxCell>
        <mxCell id="Y3LBO5aBJdapkFDMhHXi-12" value="Works" style="text;html=1;strokeColor=none;fillColor=none;align=left;verticalAlign=middle;spacingLeft=4;spacingRight=4;overflow=hidden;rotatable=0;points=[[0,0.5],[1,0.5]];portConstraint=eastwest;whiteSpace=wrap;" parent="Y3LBO5aBJdapkFDMhHXi-7" vertex="1">
          <mxGeometry y="100" width="140" height="30" as="geometry" />
        </mxCell>
        <mxCell id="Y3LBO5aBJdapkFDMhHXi-13" value="Home" style="text;html=1;strokeColor=none;fillColor=none;align=left;verticalAlign=middle;spacingLeft=4;spacingRight=4;overflow=hidden;rotatable=0;points=[[0,0.5],[1,0.5]];portConstraint=eastwest;whiteSpace=wrap;" parent="Y3LBO5aBJdapkFDMhHXi-7" vertex="1">
          <mxGeometry y="130" width="140" height="30" as="geometry" />
        </mxCell>
        <mxCell id="Y3LBO5aBJdapkFDMhHXi-14" value="Personal" style="text;html=1;strokeColor=none;fillColor=none;align=left;verticalAlign=middle;spacingLeft=4;spacingRight=4;overflow=hidden;rotatable=0;points=[[0,0.5],[1,0.5]];portConstraint=eastwest;whiteSpace=wrap;" parent="Y3LBO5aBJdapkFDMhHXi-7" vertex="1">
          <mxGeometry y="160" width="140" height="30" as="geometry" />
        </mxCell>
        <mxCell id="Y3LBO5aBJdapkFDMhHXi-15" value="Financial" style="text;html=1;strokeColor=none;fillColor=none;align=left;verticalAlign=middle;spacingLeft=4;spacingRight=4;overflow=hidden;rotatable=0;points=[[0,0.5],[1,0.5]];portConstraint=eastwest;whiteSpace=wrap;" parent="Y3LBO5aBJdapkFDMhHXi-7" vertex="1">
          <mxGeometry y="190" width="140" height="30" as="geometry" />
        </mxCell>
        <mxCell id="Y3LBO5aBJdapkFDMhHXi-16" value="Transportation" style="text;html=1;strokeColor=none;fillColor=none;align=left;verticalAlign=middle;spacingLeft=4;spacingRight=4;overflow=hidden;rotatable=0;points=[[0,0.5],[1,0.5]];portConstraint=eastwest;whiteSpace=wrap;" parent="Y3LBO5aBJdapkFDMhHXi-7" vertex="1">
          <mxGeometry y="220" width="140" height="30" as="geometry" />
        </mxCell>
        <mxCell id="Y3LBO5aBJdapkFDMhHXi-25" value="Library" style="shape=umlFrame;whiteSpace=wrap;html=1;pointerEvents=0;recursiveResize=0;container=1;collapsible=0;width=160;" parent="Y3LBO5aBJdapkFDMhHXi-56" vertex="1">
          <mxGeometry width="820" height="1000" as="geometry" />
        </mxCell>
        <mxCell id="Y3LBO5aBJdapkFDMhHXi-26" value="Tasks" style="swimlane;fontStyle=1;align=center;verticalAlign=top;childLayout=stackLayout;horizontal=1;startSize=26;horizontalStack=0;resizeParent=1;resizeParentMax=0;resizeLast=0;collapsible=1;marginBottom=0;whiteSpace=wrap;html=1;" parent="Y3LBO5aBJdapkFDMhHXi-25" vertex="1">
          <mxGeometry x="330" y="390" width="180" height="568" as="geometry" />
        </mxCell>
        <mxCell id="Y3LBO5aBJdapkFDMhHXi-27" value="+ Id : int" style="text;strokeColor=none;fillColor=none;align=left;verticalAlign=top;spacingLeft=4;spacingRight=4;overflow=hidden;rotatable=0;points=[[0,0.5],[1,0.5]];portConstraint=eastwest;whiteSpace=wrap;html=1;" parent="Y3LBO5aBJdapkFDMhHXi-26" vertex="1">
          <mxGeometry y="26" width="180" height="26" as="geometry" />
        </mxCell>
        <mxCell id="Y3LBO5aBJdapkFDMhHXi-30" value="+ Title : string" style="text;strokeColor=none;fillColor=none;align=left;verticalAlign=top;spacingLeft=4;spacingRight=4;overflow=hidden;rotatable=0;points=[[0,0.5],[1,0.5]];portConstraint=eastwest;whiteSpace=wrap;html=1;" parent="Y3LBO5aBJdapkFDMhHXi-26" vertex="1">
          <mxGeometry y="52" width="180" height="26" as="geometry" />
        </mxCell>
        <mxCell id="Y3LBO5aBJdapkFDMhHXi-31" value="+ Description : string" style="text;strokeColor=none;fillColor=none;align=left;verticalAlign=top;spacingLeft=4;spacingRight=4;overflow=hidden;rotatable=0;points=[[0,0.5],[1,0.5]];portConstraint=eastwest;whiteSpace=wrap;html=1;" parent="Y3LBO5aBJdapkFDMhHXi-26" vertex="1">
          <mxGeometry y="78" width="180" height="26" as="geometry" />
        </mxCell>
        <mxCell id="Y3LBO5aBJdapkFDMhHXi-33" value="+ Priority : Priority" style="text;strokeColor=none;fillColor=none;align=left;verticalAlign=top;spacingLeft=4;spacingRight=4;overflow=hidden;rotatable=0;points=[[0,0.5],[1,0.5]];portConstraint=eastwest;whiteSpace=wrap;html=1;" parent="Y3LBO5aBJdapkFDMhHXi-26" vertex="1">
          <mxGeometry y="104" width="180" height="26" as="geometry" />
        </mxCell>
        <mxCell id="Y3LBO5aBJdapkFDMhHXi-34" value="+ DueDate : DateTime?" style="text;strokeColor=none;fillColor=none;align=left;verticalAlign=top;spacingLeft=4;spacingRight=4;overflow=hidden;rotatable=0;points=[[0,0.5],[1,0.5]];portConstraint=eastwest;whiteSpace=wrap;html=1;" parent="Y3LBO5aBJdapkFDMhHXi-26" vertex="1">
          <mxGeometry y="130" width="180" height="26" as="geometry" />
        </mxCell>
        <mxCell id="Y3LBO5aBJdapkFDMhHXi-36" value="+ IsCompleted : bool" style="text;strokeColor=none;fillColor=none;align=left;verticalAlign=top;spacingLeft=4;spacingRight=4;overflow=hidden;rotatable=0;points=[[0,0.5],[1,0.5]];portConstraint=eastwest;whiteSpace=wrap;html=1;" parent="Y3LBO5aBJdapkFDMhHXi-26" vertex="1">
          <mxGeometry y="156" width="180" height="26" as="geometry" />
        </mxCell>
        <mxCell id="Y3LBO5aBJdapkFDMhHXi-35" value="+ Notes : string?" style="text;strokeColor=none;fillColor=none;align=left;verticalAlign=top;spacingLeft=4;spacingRight=4;overflow=hidden;rotatable=0;points=[[0,0.5],[1,0.5]];portConstraint=eastwest;whiteSpace=wrap;html=1;" parent="Y3LBO5aBJdapkFDMhHXi-26" vertex="1">
          <mxGeometry y="182" width="180" height="26" as="geometry" />
        </mxCell>
        <mxCell id="Y3LBO5aBJdapkFDMhHXi-37" value="+ Category : Category" style="text;strokeColor=none;fillColor=none;align=left;verticalAlign=top;spacingLeft=4;spacingRight=4;overflow=hidden;rotatable=0;points=[[0,0.5],[1,0.5]];portConstraint=eastwest;whiteSpace=wrap;html=1;" parent="Y3LBO5aBJdapkFDMhHXi-26" vertex="1">
          <mxGeometry y="208" width="180" height="26" as="geometry" />
        </mxCell>
        <mxCell id="Y3LBO5aBJdapkFDMhHXi-38" value="+ Status : TasksStatus" style="text;strokeColor=none;fillColor=none;align=left;verticalAlign=top;spacingLeft=4;spacingRight=4;overflow=hidden;rotatable=0;points=[[0,0.5],[1,0.5]];portConstraint=eastwest;whiteSpace=wrap;html=1;" parent="Y3LBO5aBJdapkFDMhHXi-26" vertex="1">
          <mxGeometry y="234" width="180" height="26" as="geometry" />
        </mxCell>
        <mxCell id="Y3LBO5aBJdapkFDMhHXi-32" value="+ Schedule : Schedule" style="text;strokeColor=none;fillColor=none;align=left;verticalAlign=top;spacingLeft=4;spacingRight=4;overflow=hidden;rotatable=0;points=[[0,0.5],[1,0.5]];portConstraint=eastwest;whiteSpace=wrap;html=1;" parent="Y3LBO5aBJdapkFDMhHXi-26" vertex="1">
          <mxGeometry y="260" width="180" height="26" as="geometry" />
        </mxCell>
        <mxCell id="Y3LBO5aBJdapkFDMhHXi-28" value="" style="line;strokeWidth=1;fillColor=none;align=left;verticalAlign=middle;spacingTop=-1;spacingLeft=3;spacingRight=3;rotatable=0;labelPosition=right;points=[];portConstraint=eastwest;strokeColor=inherit;" parent="Y3LBO5aBJdapkFDMhHXi-26" vertex="1">
          <mxGeometry y="286" width="180" height="8" as="geometry" />
        </mxCell>
        <mxCell id="Y3LBO5aBJdapkFDMhHXi-29" value="+ Update(DateTime?, string, string, string) : void" style="text;strokeColor=none;fillColor=none;align=left;verticalAlign=top;spacingLeft=4;spacingRight=4;overflow=hidden;rotatable=0;points=[[0,0.5],[1,0.5]];portConstraint=eastwest;whiteSpace=wrap;html=1;" parent="Y3LBO5aBJdapkFDMhHXi-26" vertex="1">
          <mxGeometry y="294" width="180" height="46" as="geometry" />
        </mxCell>
        <mxCell id="Y3LBO5aBJdapkFDMhHXi-39" value="+ ChangePriority(Priority) : void" style="text;strokeColor=none;fillColor=none;align=left;verticalAlign=top;spacingLeft=4;spacingRight=4;overflow=hidden;rotatable=0;points=[[0,0.5],[1,0.5]];portConstraint=eastwest;whiteSpace=wrap;html=1;" parent="Y3LBO5aBJdapkFDMhHXi-26" vertex="1">
          <mxGeometry y="340" width="180" height="30" as="geometry" />
        </mxCell>
        <mxCell id="Y3LBO5aBJdapkFDMhHXi-40" value="+ ChangeCategory(Category) : Category" style="text;strokeColor=none;fillColor=none;align=left;verticalAlign=top;spacingLeft=4;spacingRight=4;overflow=hidden;rotatable=0;points=[[0,0.5],[1,0.5]];portConstraint=eastwest;whiteSpace=wrap;html=1;" parent="Y3LBO5aBJdapkFDMhHXi-26" vertex="1">
          <mxGeometry y="370" width="180" height="40" as="geometry" />
        </mxCell>
        <mxCell id="Y3LBO5aBJdapkFDMhHXi-41" value="+ ChangeStatus(TasksStatus) : void" style="text;strokeColor=none;fillColor=none;align=left;verticalAlign=top;spacingLeft=4;spacingRight=4;overflow=hidden;rotatable=0;points=[[0,0.5],[1,0.5]];portConstraint=eastwest;whiteSpace=wrap;html=1;" parent="Y3LBO5aBJdapkFDMhHXi-26" vertex="1">
          <mxGeometry y="410" width="180" height="40" as="geometry" />
        </mxCell>
        <mxCell id="Y3LBO5aBJdapkFDMhHXi-42" value="+ ChangeSchedule(Schedule) : void" style="text;strokeColor=none;fillColor=none;align=left;verticalAlign=top;spacingLeft=4;spacingRight=4;overflow=hidden;rotatable=0;points=[[0,0.5],[1,0.5]];portConstraint=eastwest;whiteSpace=wrap;html=1;" parent="Y3LBO5aBJdapkFDMhHXi-26" vertex="1">
          <mxGeometry y="450" width="180" height="40" as="geometry" />
        </mxCell>
        <mxCell id="Y3LBO5aBJdapkFDMhHXi-43" value="+ MarkComplete() : void" style="text;strokeColor=none;fillColor=none;align=left;verticalAlign=top;spacingLeft=4;spacingRight=4;overflow=hidden;rotatable=0;points=[[0,0.5],[1,0.5]];portConstraint=eastwest;whiteSpace=wrap;html=1;" parent="Y3LBO5aBJdapkFDMhHXi-26" vertex="1">
          <mxGeometry y="490" width="180" height="26" as="geometry" />
        </mxCell>
        <mxCell id="Y3LBO5aBJdapkFDMhHXi-44" value="+ IsOverdue() : bool" style="text;strokeColor=none;fillColor=none;align=left;verticalAlign=top;spacingLeft=4;spacingRight=4;overflow=hidden;rotatable=0;points=[[0,0.5],[1,0.5]];portConstraint=eastwest;whiteSpace=wrap;html=1;" parent="Y3LBO5aBJdapkFDMhHXi-26" vertex="1">
          <mxGeometry y="516" width="180" height="26" as="geometry" />
        </mxCell>
        <mxCell id="Y3LBO5aBJdapkFDMhHXi-45" value="+ Validate(string, string) : void" style="text;strokeColor=none;fillColor=none;align=left;verticalAlign=top;spacingLeft=4;spacingRight=4;overflow=hidden;rotatable=0;points=[[0,0.5],[1,0.5]];portConstraint=eastwest;whiteSpace=wrap;html=1;" parent="Y3LBO5aBJdapkFDMhHXi-26" vertex="1">
          <mxGeometry y="542" width="180" height="26" as="geometry" />
        </mxCell>
        <mxCell id="Y3LBO5aBJdapkFDMhHXi-47" style="edgeStyle=none;rounded=0;orthogonalLoop=1;jettySize=auto;html=1;entryX=-0.008;entryY=0.026;entryDx=0;entryDy=0;entryPerimeter=0;" parent="Y3LBO5aBJdapkFDMhHXi-56" source="Y3LBO5aBJdapkFDMhHXi-2" target="Y3LBO5aBJdapkFDMhHXi-26" edge="1">
          <mxGeometry relative="1" as="geometry" />
        </mxCell>
        <mxCell id="Y3LBO5aBJdapkFDMhHXi-48" style="edgeStyle=none;rounded=0;orthogonalLoop=1;jettySize=auto;html=1;exitX=1;exitY=0.5;exitDx=0;exitDy=0;entryX=0.25;entryY=0;entryDx=0;entryDy=0;" parent="Y3LBO5aBJdapkFDMhHXi-56" source="Y3LBO5aBJdapkFDMhHXi-16" target="Y3LBO5aBJdapkFDMhHXi-26" edge="1">
          <mxGeometry relative="1" as="geometry" />
        </mxCell>
        <mxCell id="Y3LBO5aBJdapkFDMhHXi-49" style="edgeStyle=none;rounded=0;orthogonalLoop=1;jettySize=auto;html=1;entryX=0.5;entryY=0;entryDx=0;entryDy=0;" parent="Y3LBO5aBJdapkFDMhHXi-56" source="Y3LBO5aBJdapkFDMhHXi-20" target="Y3LBO5aBJdapkFDMhHXi-26" edge="1">
          <mxGeometry relative="1" as="geometry" />
        </mxCell>
        <mxCell id="Y3LBO5aBJdapkFDMhHXi-50" style="edgeStyle=none;rounded=0;orthogonalLoop=1;jettySize=auto;html=1;exitX=0;exitY=0.5;exitDx=0;exitDy=0;entryX=1;entryY=0;entryDx=0;entryDy=0;" parent="Y3LBO5aBJdapkFDMhHXi-56" source="Y3LBO5aBJdapkFDMhHXi-21" target="Y3LBO5aBJdapkFDMhHXi-26" edge="1">
          <mxGeometry relative="1" as="geometry" />
        </mxCell>
        <mxCell id="Y3LBO5aBJdapkFDMhHXi-252" value="UI" style="shape=umlFrame;whiteSpace=wrap;html=1;pointerEvents=0;recursiveResize=0;container=1;collapsible=0;width=160;" parent="1" vertex="1">
          <mxGeometry x="40" y="1164" width="930" height="1080" as="geometry" />
        </mxCell>
        <mxCell id="Y3LBO5aBJdapkFDMhHXi-308" value="" style="group" parent="Y3LBO5aBJdapkFDMhHXi-252" vertex="1" connectable="0">
          <mxGeometry x="190" y="30" width="660" height="1022" as="geometry" />
        </mxCell>
        <mxCell id="Y3LBO5aBJdapkFDMhHXi-257" value="TaskManager" style="swimlane;fontStyle=1;align=center;verticalAlign=top;childLayout=stackLayout;horizontal=1;startSize=26;horizontalStack=0;resizeParent=1;resizeParentMax=0;resizeLast=0;collapsible=1;marginBottom=0;whiteSpace=wrap;html=1;" parent="Y3LBO5aBJdapkFDMhHXi-308" vertex="1">
          <mxGeometry width="240" height="710" as="geometry" />
        </mxCell>
        <mxCell id="Y3LBO5aBJdapkFDMhHXi-258" value="- _taskservice : ITaskService" style="text;strokeColor=none;fillColor=none;align=left;verticalAlign=top;spacingLeft=4;spacingRight=4;overflow=hidden;rotatable=0;points=[[0,0.5],[1,0.5]];portConstraint=eastwest;whiteSpace=wrap;html=1;" parent="Y3LBO5aBJdapkFDMhHXi-257" vertex="1">
          <mxGeometry y="26" width="240" height="26" as="geometry" />
        </mxCell>
        <mxCell id="Y3LBO5aBJdapkFDMhHXi-267" value="- _consolelogger : IConsoleLogger" style="text;strokeColor=none;fillColor=none;align=left;verticalAlign=top;spacingLeft=4;spacingRight=4;overflow=hidden;rotatable=0;points=[[0,0.5],[1,0.5]];portConstraint=eastwest;whiteSpace=wrap;html=1;" parent="Y3LBO5aBJdapkFDMhHXi-257" vertex="1">
          <mxGeometry y="52" width="240" height="26" as="geometry" />
        </mxCell>
        <mxCell id="Y3LBO5aBJdapkFDMhHXi-266" value="- _filelogger : IFileLogger" style="text;strokeColor=none;fillColor=none;align=left;verticalAlign=top;spacingLeft=4;spacingRight=4;overflow=hidden;rotatable=0;points=[[0,0.5],[1,0.5]];portConstraint=eastwest;whiteSpace=wrap;html=1;" parent="Y3LBO5aBJdapkFDMhHXi-257" vertex="1">
          <mxGeometry y="78" width="240" height="26" as="geometry" />
        </mxCell>
        <mxCell id="Y3LBO5aBJdapkFDMhHXi-265" value="- _formatter : IFormatter" style="text;strokeColor=none;fillColor=none;align=left;verticalAlign=top;spacingLeft=4;spacingRight=4;overflow=hidden;rotatable=0;points=[[0,0.5],[1,0.5]];portConstraint=eastwest;whiteSpace=wrap;html=1;" parent="Y3LBO5aBJdapkFDMhHXi-257" vertex="1">
          <mxGeometry y="104" width="240" height="26" as="geometry" />
        </mxCell>
        <mxCell id="Y3LBO5aBJdapkFDMhHXi-264" value="- _statusservice : ITasksStatusService" style="text;strokeColor=none;fillColor=none;align=left;verticalAlign=top;spacingLeft=4;spacingRight=4;overflow=hidden;rotatable=0;points=[[0,0.5],[1,0.5]];portConstraint=eastwest;whiteSpace=wrap;html=1;" parent="Y3LBO5aBJdapkFDMhHXi-257" vertex="1">
          <mxGeometry y="130" width="240" height="26" as="geometry" />
        </mxCell>
        <mxCell id="Y3LBO5aBJdapkFDMhHXi-263" value="- _fileservice : IFileService" style="text;strokeColor=none;fillColor=none;align=left;verticalAlign=top;spacingLeft=4;spacingRight=4;overflow=hidden;rotatable=0;points=[[0,0.5],[1,0.5]];portConstraint=eastwest;whiteSpace=wrap;html=1;" parent="Y3LBO5aBJdapkFDMhHXi-257" vertex="1">
          <mxGeometry y="156" width="240" height="26" as="geometry" />
        </mxCell>
        <mxCell id="Y3LBO5aBJdapkFDMhHXi-268" value="- _scheduleservice : IScheduleService" style="text;strokeColor=none;fillColor=none;align=left;verticalAlign=top;spacingLeft=4;spacingRight=4;overflow=hidden;rotatable=0;points=[[0,0.5],[1,0.5]];portConstraint=eastwest;whiteSpace=wrap;html=1;" parent="Y3LBO5aBJdapkFDMhHXi-257" vertex="1">
          <mxGeometry y="182" width="240" height="26" as="geometry" />
        </mxCell>
        <mxCell id="Y3LBO5aBJdapkFDMhHXi-262" value="- _priorityservice : IPriorityService" style="text;strokeColor=none;fillColor=none;align=left;verticalAlign=top;spacingLeft=4;spacingRight=4;overflow=hidden;rotatable=0;points=[[0,0.5],[1,0.5]];portConstraint=eastwest;whiteSpace=wrap;html=1;" parent="Y3LBO5aBJdapkFDMhHXi-257" vertex="1">
          <mxGeometry y="208" width="240" height="26" as="geometry" />
        </mxCell>
        <mxCell id="Y3LBO5aBJdapkFDMhHXi-261" value="- _categoryservice : ICategoryService" style="text;strokeColor=none;fillColor=none;align=left;verticalAlign=top;spacingLeft=4;spacingRight=4;overflow=hidden;rotatable=0;points=[[0,0.5],[1,0.5]];portConstraint=eastwest;whiteSpace=wrap;html=1;" parent="Y3LBO5aBJdapkFDMhHXi-257" vertex="1">
          <mxGeometry y="234" width="240" height="26" as="geometry" />
        </mxCell>
        <mxCell id="Y3LBO5aBJdapkFDMhHXi-259" value="" style="line;strokeWidth=1;fillColor=none;align=left;verticalAlign=middle;spacingTop=-1;spacingLeft=3;spacingRight=3;rotatable=0;labelPosition=right;points=[];portConstraint=eastwest;strokeColor=inherit;" parent="Y3LBO5aBJdapkFDMhHXi-257" vertex="1">
          <mxGeometry y="260" width="240" height="8" as="geometry" />
        </mxCell>
        <mxCell id="Y3LBO5aBJdapkFDMhHXi-260" value="+ TaskManagerUI() : void" style="text;strokeColor=none;fillColor=none;align=left;verticalAlign=top;spacingLeft=4;spacingRight=4;overflow=hidden;rotatable=0;points=[[0,0.5],[1,0.5]];portConstraint=eastwest;whiteSpace=wrap;html=1;" parent="Y3LBO5aBJdapkFDMhHXi-257" vertex="1">
          <mxGeometry y="268" width="240" height="26" as="geometry" />
        </mxCell>
        <mxCell id="Y3LBO5aBJdapkFDMhHXi-270" value="+ AddTask() : void" style="text;strokeColor=none;fillColor=none;align=left;verticalAlign=top;spacingLeft=4;spacingRight=4;overflow=hidden;rotatable=0;points=[[0,0.5],[1,0.5]];portConstraint=eastwest;whiteSpace=wrap;html=1;" parent="Y3LBO5aBJdapkFDMhHXi-257" vertex="1">
          <mxGeometry y="294" width="240" height="26" as="geometry" />
        </mxCell>
        <mxCell id="Y3LBO5aBJdapkFDMhHXi-271" value="+ ListAllTasks() : void" style="text;strokeColor=none;fillColor=none;align=left;verticalAlign=top;spacingLeft=4;spacingRight=4;overflow=hidden;rotatable=0;points=[[0,0.5],[1,0.5]];portConstraint=eastwest;whiteSpace=wrap;html=1;" parent="Y3LBO5aBJdapkFDMhHXi-257" vertex="1">
          <mxGeometry y="320" width="240" height="26" as="geometry" />
        </mxCell>
        <mxCell id="Y3LBO5aBJdapkFDMhHXi-272" value="+ ListIncompleteTask() : void" style="text;strokeColor=none;fillColor=none;align=left;verticalAlign=top;spacingLeft=4;spacingRight=4;overflow=hidden;rotatable=0;points=[[0,0.5],[1,0.5]];portConstraint=eastwest;whiteSpace=wrap;html=1;" parent="Y3LBO5aBJdapkFDMhHXi-257" vertex="1">
          <mxGeometry y="346" width="240" height="26" as="geometry" />
        </mxCell>
        <mxCell id="Y3LBO5aBJdapkFDMhHXi-273" value="+ ListTaskByPriority() : void" style="text;strokeColor=none;fillColor=none;align=left;verticalAlign=top;spacingLeft=4;spacingRight=4;overflow=hidden;rotatable=0;points=[[0,0.5],[1,0.5]];portConstraint=eastwest;whiteSpace=wrap;html=1;" parent="Y3LBO5aBJdapkFDMhHXi-257" vertex="1">
          <mxGeometry y="372" width="240" height="26" as="geometry" />
        </mxCell>
        <mxCell id="Y3LBO5aBJdapkFDMhHXi-274" value="+ ListTaskByCategory() : void" style="text;strokeColor=none;fillColor=none;align=left;verticalAlign=top;spacingLeft=4;spacingRight=4;overflow=hidden;rotatable=0;points=[[0,0.5],[1,0.5]];portConstraint=eastwest;whiteSpace=wrap;html=1;" parent="Y3LBO5aBJdapkFDMhHXi-257" vertex="1">
          <mxGeometry y="398" width="240" height="26" as="geometry" />
        </mxCell>
        <mxCell id="Y3LBO5aBJdapkFDMhHXi-275" value="+ ListTaskByStatus() : void" style="text;strokeColor=none;fillColor=none;align=left;verticalAlign=top;spacingLeft=4;spacingRight=4;overflow=hidden;rotatable=0;points=[[0,0.5],[1,0.5]];portConstraint=eastwest;whiteSpace=wrap;html=1;" parent="Y3LBO5aBJdapkFDMhHXi-257" vertex="1">
          <mxGeometry y="424" width="240" height="26" as="geometry" />
        </mxCell>
        <mxCell id="Y3LBO5aBJdapkFDMhHXi-276" value="+ FindTaskByTitle() : void" style="text;strokeColor=none;fillColor=none;align=left;verticalAlign=top;spacingLeft=4;spacingRight=4;overflow=hidden;rotatable=0;points=[[0,0.5],[1,0.5]];portConstraint=eastwest;whiteSpace=wrap;html=1;" parent="Y3LBO5aBJdapkFDMhHXi-257" vertex="1">
          <mxGeometry y="450" width="240" height="26" as="geometry" />
        </mxCell>
        <mxCell id="Y3LBO5aBJdapkFDMhHXi-277" value="+ MarkTasksComplete() : void" style="text;strokeColor=none;fillColor=none;align=left;verticalAlign=top;spacingLeft=4;spacingRight=4;overflow=hidden;rotatable=0;points=[[0,0.5],[1,0.5]];portConstraint=eastwest;whiteSpace=wrap;html=1;" parent="Y3LBO5aBJdapkFDMhHXi-257" vertex="1">
          <mxGeometry y="476" width="240" height="26" as="geometry" />
        </mxCell>
        <mxCell id="Y3LBO5aBJdapkFDMhHXi-278" value="+ UpdateTask() : void" style="text;strokeColor=none;fillColor=none;align=left;verticalAlign=top;spacingLeft=4;spacingRight=4;overflow=hidden;rotatable=0;points=[[0,0.5],[1,0.5]];portConstraint=eastwest;whiteSpace=wrap;html=1;" parent="Y3LBO5aBJdapkFDMhHXi-257" vertex="1">
          <mxGeometry y="502" width="240" height="26" as="geometry" />
        </mxCell>
        <mxCell id="Y3LBO5aBJdapkFDMhHXi-279" value="+ ChangeTaskPriority() : void" style="text;strokeColor=none;fillColor=none;align=left;verticalAlign=top;spacingLeft=4;spacingRight=4;overflow=hidden;rotatable=0;points=[[0,0.5],[1,0.5]];portConstraint=eastwest;whiteSpace=wrap;html=1;" parent="Y3LBO5aBJdapkFDMhHXi-257" vertex="1">
          <mxGeometry y="528" width="240" height="26" as="geometry" />
        </mxCell>
        <mxCell id="Y3LBO5aBJdapkFDMhHXi-280" value="+ ChangeTaskStatus() : void" style="text;strokeColor=none;fillColor=none;align=left;verticalAlign=top;spacingLeft=4;spacingRight=4;overflow=hidden;rotatable=0;points=[[0,0.5],[1,0.5]];portConstraint=eastwest;whiteSpace=wrap;html=1;" parent="Y3LBO5aBJdapkFDMhHXi-257" vertex="1">
          <mxGeometry y="554" width="240" height="26" as="geometry" />
        </mxCell>
        <mxCell id="Y3LBO5aBJdapkFDMhHXi-281" value="+ ChangeTaskCategory() : void" style="text;strokeColor=none;fillColor=none;align=left;verticalAlign=top;spacingLeft=4;spacingRight=4;overflow=hidden;rotatable=0;points=[[0,0.5],[1,0.5]];portConstraint=eastwest;whiteSpace=wrap;html=1;" parent="Y3LBO5aBJdapkFDMhHXi-257" vertex="1">
          <mxGeometry y="580" width="240" height="26" as="geometry" />
        </mxCell>
        <mxCell id="Y3LBO5aBJdapkFDMhHXi-282" value="+ ChangeTaskSchedule() : void" style="text;strokeColor=none;fillColor=none;align=left;verticalAlign=top;spacingLeft=4;spacingRight=4;overflow=hidden;rotatable=0;points=[[0,0.5],[1,0.5]];portConstraint=eastwest;whiteSpace=wrap;html=1;" parent="Y3LBO5aBJdapkFDMhHXi-257" vertex="1">
          <mxGeometry y="606" width="240" height="26" as="geometry" />
        </mxCell>
        <mxCell id="Y3LBO5aBJdapkFDMhHXi-283" value="+ DeleteTask() : void" style="text;strokeColor=none;fillColor=none;align=left;verticalAlign=top;spacingLeft=4;spacingRight=4;overflow=hidden;rotatable=0;points=[[0,0.5],[1,0.5]];portConstraint=eastwest;whiteSpace=wrap;html=1;" parent="Y3LBO5aBJdapkFDMhHXi-257" vertex="1">
          <mxGeometry y="632" width="240" height="26" as="geometry" />
        </mxCell>
        <mxCell id="Y3LBO5aBJdapkFDMhHXi-284" value="+ SaveTasks() : void" style="text;strokeColor=none;fillColor=none;align=left;verticalAlign=top;spacingLeft=4;spacingRight=4;overflow=hidden;rotatable=0;points=[[0,0.5],[1,0.5]];portConstraint=eastwest;whiteSpace=wrap;html=1;" parent="Y3LBO5aBJdapkFDMhHXi-257" vertex="1">
          <mxGeometry y="658" width="240" height="26" as="geometry" />
        </mxCell>
        <mxCell id="Y3LBO5aBJdapkFDMhHXi-285" value="+ LoadTask() : void" style="text;strokeColor=none;fillColor=none;align=left;verticalAlign=top;spacingLeft=4;spacingRight=4;overflow=hidden;rotatable=0;points=[[0,0.5],[1,0.5]];portConstraint=eastwest;whiteSpace=wrap;html=1;" parent="Y3LBO5aBJdapkFDMhHXi-257" vertex="1">
          <mxGeometry y="684" width="240" height="26" as="geometry" />
        </mxCell>
        <mxCell id="Y3LBO5aBJdapkFDMhHXi-253" value="ConsoleUI" style="swimlane;fontStyle=1;align=center;verticalAlign=top;childLayout=stackLayout;horizontal=1;startSize=26;horizontalStack=0;resizeParent=1;resizeParentMax=0;resizeLast=0;collapsible=1;marginBottom=0;whiteSpace=wrap;html=1;" parent="Y3LBO5aBJdapkFDMhHXi-308" vertex="1">
          <mxGeometry x="460" y="210" width="200" height="138" as="geometry" />
        </mxCell>
        <mxCell id="Y3LBO5aBJdapkFDMhHXi-305" value="- _taskManager : TaskManager" style="text;strokeColor=none;fillColor=none;align=left;verticalAlign=top;spacingLeft=4;spacingRight=4;overflow=hidden;rotatable=0;points=[[0,0.5],[1,0.5]];portConstraint=eastwest;whiteSpace=wrap;html=1;" parent="Y3LBO5aBJdapkFDMhHXi-253" vertex="1">
          <mxGeometry y="26" width="200" height="26" as="geometry" />
        </mxCell>
        <mxCell id="Y3LBO5aBJdapkFDMhHXi-306" value="- _filelogger : IFileLogger" style="text;strokeColor=none;fillColor=none;align=left;verticalAlign=top;spacingLeft=4;spacingRight=4;overflow=hidden;rotatable=0;points=[[0,0.5],[1,0.5]];portConstraint=eastwest;whiteSpace=wrap;html=1;" parent="Y3LBO5aBJdapkFDMhHXi-253" vertex="1">
          <mxGeometry y="52" width="200" height="26" as="geometry" />
        </mxCell>
        <mxCell id="Y3LBO5aBJdapkFDMhHXi-254" value="- _consolelogger : IConsoleLogger" style="text;strokeColor=none;fillColor=none;align=left;verticalAlign=top;spacingLeft=4;spacingRight=4;overflow=hidden;rotatable=0;points=[[0,0.5],[1,0.5]];portConstraint=eastwest;whiteSpace=wrap;html=1;" parent="Y3LBO5aBJdapkFDMhHXi-253" vertex="1">
          <mxGeometry y="78" width="200" height="26" as="geometry" />
        </mxCell>
        <mxCell id="Y3LBO5aBJdapkFDMhHXi-255" value="" style="line;strokeWidth=1;fillColor=none;align=left;verticalAlign=middle;spacingTop=-1;spacingLeft=3;spacingRight=3;rotatable=0;labelPosition=right;points=[];portConstraint=eastwest;strokeColor=inherit;" parent="Y3LBO5aBJdapkFDMhHXi-253" vertex="1">
          <mxGeometry y="104" width="200" height="8" as="geometry" />
        </mxCell>
        <mxCell id="Y3LBO5aBJdapkFDMhHXi-256" value="+ Run() : void" style="text;strokeColor=none;fillColor=none;align=left;verticalAlign=top;spacingLeft=4;spacingRight=4;overflow=hidden;rotatable=0;points=[[0,0.5],[1,0.5]];portConstraint=eastwest;whiteSpace=wrap;html=1;" parent="Y3LBO5aBJdapkFDMhHXi-253" vertex="1">
          <mxGeometry y="112" width="200" height="26" as="geometry" />
        </mxCell>
        <mxCell id="Y3LBO5aBJdapkFDMhHXi-307" style="edgeStyle=none;rounded=0;orthogonalLoop=1;jettySize=auto;html=1;exitX=1;exitY=0;exitDx=0;exitDy=0;entryX=0;entryY=0.5;entryDx=0;entryDy=0;" parent="Y3LBO5aBJdapkFDMhHXi-308" source="Y3LBO5aBJdapkFDMhHXi-257" target="Y3LBO5aBJdapkFDMhHXi-305" edge="1">
          <mxGeometry relative="1" as="geometry" />
        </mxCell>
        <mxCell id="Y3LBO5aBJdapkFDMhHXi-304" style="edgeStyle=none;rounded=0;orthogonalLoop=1;jettySize=auto;html=1;entryX=0.487;entryY=0.901;entryDx=0;entryDy=0;entryPerimeter=0;" parent="Y3LBO5aBJdapkFDMhHXi-308" source="Y3LBO5aBJdapkFDMhHXi-294" target="Y3LBO5aBJdapkFDMhHXi-285" edge="1">
          <mxGeometry relative="1" as="geometry" />
        </mxCell>
        <mxCell id="Y3LBO5aBJdapkFDMhHXi-294" value="UserInput" style="swimlane;fontStyle=1;align=center;verticalAlign=top;childLayout=stackLayout;horizontal=1;startSize=26;horizontalStack=0;resizeParent=1;resizeParentMax=0;resizeLast=0;collapsible=1;marginBottom=0;whiteSpace=wrap;html=1;" parent="Y3LBO5aBJdapkFDMhHXi-308" vertex="1">
          <mxGeometry x="5" y="840" width="235" height="182" as="geometry" />
        </mxCell>
        <mxCell id="Y3LBO5aBJdapkFDMhHXi-297" value="+ GetStringInput(string) : string" style="text;strokeColor=none;fillColor=none;align=left;verticalAlign=top;spacingLeft=4;spacingRight=4;overflow=hidden;rotatable=0;points=[[0,0.5],[1,0.5]];portConstraint=eastwest;whiteSpace=wrap;html=1;" parent="Y3LBO5aBJdapkFDMhHXi-294" vertex="1">
          <mxGeometry y="26" width="235" height="26" as="geometry" />
        </mxCell>
        <mxCell id="Y3LBO5aBJdapkFDMhHXi-299" value="+ GetDateInput(string) : DateTime" style="text;strokeColor=none;fillColor=none;align=left;verticalAlign=top;spacingLeft=4;spacingRight=4;overflow=hidden;rotatable=0;points=[[0,0.5],[1,0.5]];portConstraint=eastwest;whiteSpace=wrap;html=1;" parent="Y3LBO5aBJdapkFDMhHXi-294" vertex="1">
          <mxGeometry y="52" width="235" height="26" as="geometry" />
        </mxCell>
        <mxCell id="Y3LBO5aBJdapkFDMhHXi-300" value="+ GetPriorityInput(string) : Priority" style="text;strokeColor=none;fillColor=none;align=left;verticalAlign=top;spacingLeft=4;spacingRight=4;overflow=hidden;rotatable=0;points=[[0,0.5],[1,0.5]];portConstraint=eastwest;whiteSpace=wrap;html=1;" parent="Y3LBO5aBJdapkFDMhHXi-294" vertex="1">
          <mxGeometry y="78" width="235" height="26" as="geometry" />
        </mxCell>
        <mxCell id="Y3LBO5aBJdapkFDMhHXi-301" value="+ GetCategoryInput(string) : Category" style="text;strokeColor=none;fillColor=none;align=left;verticalAlign=top;spacingLeft=4;spacingRight=4;overflow=hidden;rotatable=0;points=[[0,0.5],[1,0.5]];portConstraint=eastwest;whiteSpace=wrap;html=1;" parent="Y3LBO5aBJdapkFDMhHXi-294" vertex="1">
          <mxGeometry y="104" width="235" height="26" as="geometry" />
        </mxCell>
        <mxCell id="Y3LBO5aBJdapkFDMhHXi-302" value="+ GetScheduleInput(string) : Schedule" style="text;strokeColor=none;fillColor=none;align=left;verticalAlign=top;spacingLeft=4;spacingRight=4;overflow=hidden;rotatable=0;points=[[0,0.5],[1,0.5]];portConstraint=eastwest;whiteSpace=wrap;html=1;" parent="Y3LBO5aBJdapkFDMhHXi-294" vertex="1">
          <mxGeometry y="130" width="235" height="26" as="geometry" />
        </mxCell>
        <mxCell id="Y3LBO5aBJdapkFDMhHXi-303" value="+ GetStatusInput(string) : TasksStatus" style="text;strokeColor=none;fillColor=none;align=left;verticalAlign=top;spacingLeft=4;spacingRight=4;overflow=hidden;rotatable=0;points=[[0,0.5],[1,0.5]];portConstraint=eastwest;whiteSpace=wrap;html=1;" parent="Y3LBO5aBJdapkFDMhHXi-294" vertex="1">
          <mxGeometry y="156" width="235" height="26" as="geometry" />
        </mxCell>
        <mxCell id="Y3LBO5aBJdapkFDMhHXi-298" style="edgeStyle=none;rounded=0;orthogonalLoop=1;jettySize=auto;html=1;exitX=0.5;exitY=0;exitDx=0;exitDy=0;" parent="Y3LBO5aBJdapkFDMhHXi-308" source="Y3LBO5aBJdapkFDMhHXi-294" target="Y3LBO5aBJdapkFDMhHXi-294" edge="1">
          <mxGeometry relative="1" as="geometry" />
        </mxCell>
        <mxCell id="Y3LBO5aBJdapkFDMhHXi-311" value="" style="group" parent="1" vertex="1" connectable="0">
          <mxGeometry x="-2250" y="-80" width="1960" height="1364" as="geometry" />
        </mxCell>
        <mxCell id="Y3LBO5aBJdapkFDMhHXi-57" value="Core" style="shape=umlFrame;whiteSpace=wrap;html=1;pointerEvents=0;recursiveResize=0;container=0;collapsible=0;width=160;" parent="Y3LBO5aBJdapkFDMhHXi-311" vertex="1">
          <mxGeometry width="1960" height="1364" as="geometry" />
        </mxCell>
        <mxCell id="Y3LBO5aBJdapkFDMhHXi-245" value="" style="group" parent="Y3LBO5aBJdapkFDMhHXi-311" vertex="1" connectable="0">
          <mxGeometry x="640" y="74" width="770" height="252" as="geometry" />
        </mxCell>
        <mxCell id="Y3LBO5aBJdapkFDMhHXi-64" value="«interface»&lt;br&gt;&lt;b&gt;IFileService&lt;/b&gt;" style="html=1;whiteSpace=wrap;" parent="Y3LBO5aBJdapkFDMhHXi-245" vertex="1">
          <mxGeometry x="660" y="106" width="110" height="50" as="geometry" />
        </mxCell>
        <mxCell id="Y3LBO5aBJdapkFDMhHXi-87" value="FileService" style="swimlane;fontStyle=1;align=center;verticalAlign=top;childLayout=stackLayout;horizontal=1;startSize=26;horizontalStack=0;resizeParent=1;resizeParentMax=0;resizeLast=0;collapsible=1;marginBottom=0;whiteSpace=wrap;html=1;" parent="Y3LBO5aBJdapkFDMhHXi-245" vertex="1">
          <mxGeometry x="300" y="10" width="230" height="242" as="geometry" />
        </mxCell>
        <mxCell id="Y3LBO5aBJdapkFDMhHXi-136" value="- _formatter : IFormatter" style="text;strokeColor=none;fillColor=none;align=left;verticalAlign=top;spacingLeft=4;spacingRight=4;overflow=hidden;rotatable=0;points=[[0,0.5],[1,0.5]];portConstraint=eastwest;whiteSpace=wrap;html=1;" parent="Y3LBO5aBJdapkFDMhHXi-87" vertex="1">
          <mxGeometry y="26" width="230" height="26" as="geometry" />
        </mxCell>
        <mxCell id="Y3LBO5aBJdapkFDMhHXi-139" value="- _taskservice : ITaskService" style="text;strokeColor=none;fillColor=none;align=left;verticalAlign=top;spacingLeft=4;spacingRight=4;overflow=hidden;rotatable=0;points=[[0,0.5],[1,0.5]];portConstraint=eastwest;whiteSpace=wrap;html=1;" parent="Y3LBO5aBJdapkFDMhHXi-87" vertex="1">
          <mxGeometry y="52" width="230" height="26" as="geometry" />
        </mxCell>
        <mxCell id="Y3LBO5aBJdapkFDMhHXi-138" value="- _consolelogger : IConsoleLogger" style="text;strokeColor=none;fillColor=none;align=left;verticalAlign=top;spacingLeft=4;spacingRight=4;overflow=hidden;rotatable=0;points=[[0,0.5],[1,0.5]];portConstraint=eastwest;whiteSpace=wrap;html=1;" parent="Y3LBO5aBJdapkFDMhHXi-87" vertex="1">
          <mxGeometry y="78" width="230" height="26" as="geometry" />
        </mxCell>
        <mxCell id="Y3LBO5aBJdapkFDMhHXi-137" value="- _filelogger : IFileLogger" style="text;strokeColor=none;fillColor=none;align=left;verticalAlign=top;spacingLeft=4;spacingRight=4;overflow=hidden;rotatable=0;points=[[0,0.5],[1,0.5]];portConstraint=eastwest;whiteSpace=wrap;html=1;" parent="Y3LBO5aBJdapkFDMhHXi-87" vertex="1">
          <mxGeometry y="104" width="230" height="26" as="geometry" />
        </mxCell>
        <mxCell id="Y3LBO5aBJdapkFDMhHXi-89" value="" style="line;strokeWidth=1;fillColor=none;align=left;verticalAlign=middle;spacingTop=-1;spacingLeft=3;spacingRight=3;rotatable=0;labelPosition=right;points=[];portConstraint=eastwest;strokeColor=inherit;" parent="Y3LBO5aBJdapkFDMhHXi-87" vertex="1">
          <mxGeometry y="130" width="230" height="8" as="geometry" />
        </mxCell>
        <mxCell id="Y3LBO5aBJdapkFDMhHXi-90" value="+ LoadTasks(string) : void" style="text;strokeColor=none;fillColor=none;align=left;verticalAlign=top;spacingLeft=4;spacingRight=4;overflow=hidden;rotatable=0;points=[[0,0.5],[1,0.5]];portConstraint=eastwest;whiteSpace=wrap;html=1;" parent="Y3LBO5aBJdapkFDMhHXi-87" vertex="1">
          <mxGeometry y="138" width="230" height="26" as="geometry" />
        </mxCell>
        <mxCell id="Y3LBO5aBJdapkFDMhHXi-150" value="+ StreamRead(string) : void" style="text;strokeColor=none;fillColor=none;align=left;verticalAlign=top;spacingLeft=4;spacingRight=4;overflow=hidden;rotatable=0;points=[[0,0.5],[1,0.5]];portConstraint=eastwest;whiteSpace=wrap;html=1;" parent="Y3LBO5aBJdapkFDMhHXi-87" vertex="1">
          <mxGeometry y="164" width="230" height="26" as="geometry" />
        </mxCell>
        <mxCell id="Y3LBO5aBJdapkFDMhHXi-151" value="+ SaveTasks(string, List&amp;lt;Tasks&amp;gt;) : void" style="text;strokeColor=none;fillColor=none;align=left;verticalAlign=top;spacingLeft=4;spacingRight=4;overflow=hidden;rotatable=0;points=[[0,0.5],[1,0.5]];portConstraint=eastwest;whiteSpace=wrap;html=1;" parent="Y3LBO5aBJdapkFDMhHXi-87" vertex="1">
          <mxGeometry y="190" width="230" height="26" as="geometry" />
        </mxCell>
        <mxCell id="Y3LBO5aBJdapkFDMhHXi-152" value="+ StreamWrite(List&amp;lt;Tasks&amp;gt;, string)" style="text;strokeColor=none;fillColor=none;align=left;verticalAlign=top;spacingLeft=4;spacingRight=4;overflow=hidden;rotatable=0;points=[[0,0.5],[1,0.5]];portConstraint=eastwest;whiteSpace=wrap;html=1;" parent="Y3LBO5aBJdapkFDMhHXi-87" vertex="1">
          <mxGeometry y="216" width="230" height="26" as="geometry" />
        </mxCell>
        <mxCell id="Y3LBO5aBJdapkFDMhHXi-140" value="SaveAndLoadTasks" style="swimlane;fontStyle=1;align=center;verticalAlign=top;childLayout=stackLayout;horizontal=1;startSize=26;horizontalStack=0;resizeParent=1;resizeParentMax=0;resizeLast=0;collapsible=1;marginBottom=0;whiteSpace=wrap;html=1;" parent="Y3LBO5aBJdapkFDMhHXi-245" vertex="1">
          <mxGeometry width="230" height="104" as="geometry" />
        </mxCell>
        <mxCell id="Y3LBO5aBJdapkFDMhHXi-147" value="+ SaveTasks(Tasks, FileStream) : void" style="text;strokeColor=none;fillColor=none;align=left;verticalAlign=top;spacingLeft=4;spacingRight=4;overflow=hidden;rotatable=0;points=[[0,0.5],[1,0.5]];portConstraint=eastwest;whiteSpace=wrap;html=1;" parent="Y3LBO5aBJdapkFDMhHXi-140" vertex="1">
          <mxGeometry y="26" width="230" height="26" as="geometry" />
        </mxCell>
        <mxCell id="Y3LBO5aBJdapkFDMhHXi-148" value="+ LoadTasks(StreamReader) : Tasks" style="text;strokeColor=none;fillColor=none;align=left;verticalAlign=top;spacingLeft=4;spacingRight=4;overflow=hidden;rotatable=0;points=[[0,0.5],[1,0.5]];portConstraint=eastwest;whiteSpace=wrap;html=1;" parent="Y3LBO5aBJdapkFDMhHXi-140" vertex="1">
          <mxGeometry y="52" width="230" height="26" as="geometry" />
        </mxCell>
        <mxCell id="Y3LBO5aBJdapkFDMhHXi-149" value="+ WriteText(FileStream, string)" style="text;strokeColor=none;fillColor=none;align=left;verticalAlign=top;spacingLeft=4;spacingRight=4;overflow=hidden;rotatable=0;points=[[0,0.5],[1,0.5]];portConstraint=eastwest;whiteSpace=wrap;html=1;" parent="Y3LBO5aBJdapkFDMhHXi-140" vertex="1">
          <mxGeometry y="78" width="230" height="26" as="geometry" />
        </mxCell>
        <mxCell id="Y3LBO5aBJdapkFDMhHXi-154" value="" style="endArrow=block;dashed=1;endFill=0;endSize=12;html=1;rounded=0;entryX=0;entryY=0.5;entryDx=0;entryDy=0;exitX=1;exitY=0.047;exitDx=0;exitDy=0;exitPerimeter=0;" parent="Y3LBO5aBJdapkFDMhHXi-245" source="Y3LBO5aBJdapkFDMhHXi-87" target="Y3LBO5aBJdapkFDMhHXi-64" edge="1">
          <mxGeometry width="160" relative="1" as="geometry">
            <mxPoint x="835" y="120" as="sourcePoint" />
            <mxPoint x="675" y="120" as="targetPoint" />
          </mxGeometry>
        </mxCell>
        <mxCell id="Y3LBO5aBJdapkFDMhHXi-239" style="edgeStyle=none;rounded=0;orthogonalLoop=1;jettySize=auto;html=1;exitX=1;exitY=0.5;exitDx=0;exitDy=0;entryX=0;entryY=0.5;entryDx=0;entryDy=0;" parent="Y3LBO5aBJdapkFDMhHXi-245" source="Y3LBO5aBJdapkFDMhHXi-148" target="Y3LBO5aBJdapkFDMhHXi-90" edge="1">
          <mxGeometry relative="1" as="geometry" />
        </mxCell>
        <mxCell id="Y3LBO5aBJdapkFDMhHXi-196" value="" style="group" parent="Y3LBO5aBJdapkFDMhHXi-311" vertex="1" connectable="0">
          <mxGeometry x="810" y="834" width="330" height="320" as="geometry" />
        </mxCell>
        <mxCell id="Y3LBO5aBJdapkFDMhHXi-59" value="«interface»&lt;br&gt;&lt;b&gt;ITasksStatusService&lt;/b&gt;" style="html=1;whiteSpace=wrap;" parent="Y3LBO5aBJdapkFDMhHXi-196" vertex="1">
          <mxGeometry x="95" width="140" height="60" as="geometry" />
        </mxCell>
        <mxCell id="Y3LBO5aBJdapkFDMhHXi-187" value="TasksStatusService" style="swimlane;fontStyle=1;align=center;verticalAlign=top;childLayout=stackLayout;horizontal=1;startSize=26;horizontalStack=0;resizeParent=1;resizeParentMax=0;resizeLast=0;collapsible=1;marginBottom=0;whiteSpace=wrap;html=1;" parent="Y3LBO5aBJdapkFDMhHXi-196" vertex="1">
          <mxGeometry y="130" width="330" height="190" as="geometry" />
        </mxCell>
        <mxCell id="Y3LBO5aBJdapkFDMhHXi-188" value="- _formatter : IFormatter" style="text;strokeColor=none;fillColor=none;align=left;verticalAlign=top;spacingLeft=4;spacingRight=4;overflow=hidden;rotatable=0;points=[[0,0.5],[1,0.5]];portConstraint=eastwest;whiteSpace=wrap;html=1;" parent="Y3LBO5aBJdapkFDMhHXi-187" vertex="1">
          <mxGeometry y="26" width="330" height="26" as="geometry" />
        </mxCell>
        <mxCell id="Y3LBO5aBJdapkFDMhHXi-189" value="- _taskservice : ITaskService" style="text;strokeColor=none;fillColor=none;align=left;verticalAlign=top;spacingLeft=4;spacingRight=4;overflow=hidden;rotatable=0;points=[[0,0.5],[1,0.5]];portConstraint=eastwest;whiteSpace=wrap;html=1;" parent="Y3LBO5aBJdapkFDMhHXi-187" vertex="1">
          <mxGeometry y="52" width="330" height="26" as="geometry" />
        </mxCell>
        <mxCell id="Y3LBO5aBJdapkFDMhHXi-190" value="- _consolelogger : IConsoleLogger" style="text;strokeColor=none;fillColor=none;align=left;verticalAlign=top;spacingLeft=4;spacingRight=4;overflow=hidden;rotatable=0;points=[[0,0.5],[1,0.5]];portConstraint=eastwest;whiteSpace=wrap;html=1;" parent="Y3LBO5aBJdapkFDMhHXi-187" vertex="1">
          <mxGeometry y="78" width="330" height="26" as="geometry" />
        </mxCell>
        <mxCell id="Y3LBO5aBJdapkFDMhHXi-191" value="- _filelogger : IFileLogger" style="text;strokeColor=none;fillColor=none;align=left;verticalAlign=top;spacingLeft=4;spacingRight=4;overflow=hidden;rotatable=0;points=[[0,0.5],[1,0.5]];portConstraint=eastwest;whiteSpace=wrap;html=1;" parent="Y3LBO5aBJdapkFDMhHXi-187" vertex="1">
          <mxGeometry y="104" width="330" height="26" as="geometry" />
        </mxCell>
        <mxCell id="Y3LBO5aBJdapkFDMhHXi-192" value="" style="line;strokeWidth=1;fillColor=none;align=left;verticalAlign=middle;spacingTop=-1;spacingLeft=3;spacingRight=3;rotatable=0;labelPosition=right;points=[];portConstraint=eastwest;strokeColor=inherit;" parent="Y3LBO5aBJdapkFDMhHXi-187" vertex="1">
          <mxGeometry y="130" width="330" height="8" as="geometry" />
        </mxCell>
        <mxCell id="Y3LBO5aBJdapkFDMhHXi-193" value="+ ChangeTasksStatus(string, TasksStatus) : void" style="text;strokeColor=none;fillColor=none;align=left;verticalAlign=top;spacingLeft=4;spacingRight=4;overflow=hidden;rotatable=0;points=[[0,0.5],[1,0.5]];portConstraint=eastwest;whiteSpace=wrap;html=1;" parent="Y3LBO5aBJdapkFDMhHXi-187" vertex="1">
          <mxGeometry y="138" width="330" height="26" as="geometry" />
        </mxCell>
        <mxCell id="Y3LBO5aBJdapkFDMhHXi-194" value="+ ListTasksByTasksStatus(TasksStatus) : List&amp;lt;Tasks&amp;gt;" style="text;strokeColor=none;fillColor=none;align=left;verticalAlign=top;spacingLeft=4;spacingRight=4;overflow=hidden;rotatable=0;points=[[0,0.5],[1,0.5]];portConstraint=eastwest;whiteSpace=wrap;html=1;" parent="Y3LBO5aBJdapkFDMhHXi-187" vertex="1">
          <mxGeometry y="164" width="330" height="26" as="geometry" />
        </mxCell>
        <mxCell id="Y3LBO5aBJdapkFDMhHXi-195" value="" style="endArrow=block;dashed=1;endFill=0;endSize=12;html=1;rounded=0;exitX=0.5;exitY=1;exitDx=0;exitDy=0;entryX=0.5;entryY=0;entryDx=0;entryDy=0;" parent="Y3LBO5aBJdapkFDMhHXi-196" source="Y3LBO5aBJdapkFDMhHXi-59" target="Y3LBO5aBJdapkFDMhHXi-187" edge="1">
          <mxGeometry width="160" relative="1" as="geometry">
            <mxPoint x="590" y="60" as="sourcePoint" />
            <mxPoint x="750" y="60" as="targetPoint" />
          </mxGeometry>
        </mxCell>
        <mxCell id="Y3LBO5aBJdapkFDMhHXi-216" value="" style="group" parent="Y3LBO5aBJdapkFDMhHXi-311" vertex="1" connectable="0">
          <mxGeometry x="1450" y="224" width="330" height="440" as="geometry" />
        </mxCell>
        <mxCell id="Y3LBO5aBJdapkFDMhHXi-60" value="«interface»&lt;br&gt;&lt;b&gt;ITaskService&lt;/b&gt;" style="html=1;whiteSpace=wrap;" parent="Y3LBO5aBJdapkFDMhHXi-216" vertex="1">
          <mxGeometry x="110" width="110" height="50" as="geometry" />
        </mxCell>
        <mxCell id="Y3LBO5aBJdapkFDMhHXi-200" value="TaskService" style="swimlane;fontStyle=1;align=center;verticalAlign=top;childLayout=stackLayout;horizontal=1;startSize=26;horizontalStack=0;resizeParent=1;resizeParentMax=0;resizeLast=0;collapsible=1;marginBottom=0;whiteSpace=wrap;html=1;" parent="Y3LBO5aBJdapkFDMhHXi-216" vertex="1">
          <mxGeometry y="120" width="330" height="320" as="geometry" />
        </mxCell>
        <mxCell id="Y3LBO5aBJdapkFDMhHXi-201" value="- _formatter : IFormatter" style="text;strokeColor=none;fillColor=none;align=left;verticalAlign=top;spacingLeft=4;spacingRight=4;overflow=hidden;rotatable=0;points=[[0,0.5],[1,0.5]];portConstraint=eastwest;whiteSpace=wrap;html=1;" parent="Y3LBO5aBJdapkFDMhHXi-200" vertex="1">
          <mxGeometry y="26" width="330" height="26" as="geometry" />
        </mxCell>
        <mxCell id="Y3LBO5aBJdapkFDMhHXi-203" value="- _consolelogger : IConsoleLogger" style="text;strokeColor=none;fillColor=none;align=left;verticalAlign=top;spacingLeft=4;spacingRight=4;overflow=hidden;rotatable=0;points=[[0,0.5],[1,0.5]];portConstraint=eastwest;whiteSpace=wrap;html=1;" parent="Y3LBO5aBJdapkFDMhHXi-200" vertex="1">
          <mxGeometry y="52" width="330" height="26" as="geometry" />
        </mxCell>
        <mxCell id="Y3LBO5aBJdapkFDMhHXi-204" value="- _filelogger : IFileLogger" style="text;strokeColor=none;fillColor=none;align=left;verticalAlign=top;spacingLeft=4;spacingRight=4;overflow=hidden;rotatable=0;points=[[0,0.5],[1,0.5]];portConstraint=eastwest;whiteSpace=wrap;html=1;" parent="Y3LBO5aBJdapkFDMhHXi-200" vertex="1">
          <mxGeometry y="78" width="330" height="26" as="geometry" />
        </mxCell>
        <mxCell id="Y3LBO5aBJdapkFDMhHXi-202" value="+ tasks : List&amp;lt;Tasks&amp;gt;" style="text;strokeColor=none;fillColor=none;align=left;verticalAlign=top;spacingLeft=4;spacingRight=4;overflow=hidden;rotatable=0;points=[[0,0.5],[1,0.5]];portConstraint=eastwest;whiteSpace=wrap;html=1;" parent="Y3LBO5aBJdapkFDMhHXi-200" vertex="1">
          <mxGeometry y="104" width="330" height="26" as="geometry" />
        </mxCell>
        <mxCell id="Y3LBO5aBJdapkFDMhHXi-205" value="" style="line;strokeWidth=1;fillColor=none;align=left;verticalAlign=middle;spacingTop=-1;spacingLeft=3;spacingRight=3;rotatable=0;labelPosition=right;points=[];portConstraint=eastwest;strokeColor=inherit;" parent="Y3LBO5aBJdapkFDMhHXi-200" vertex="1">
          <mxGeometry y="130" width="330" height="8" as="geometry" />
        </mxCell>
        <mxCell id="Y3LBO5aBJdapkFDMhHXi-206" value="+ AddTask(Tasks) : bool" style="text;strokeColor=none;fillColor=none;align=left;verticalAlign=top;spacingLeft=4;spacingRight=4;overflow=hidden;rotatable=0;points=[[0,0.5],[1,0.5]];portConstraint=eastwest;whiteSpace=wrap;html=1;" parent="Y3LBO5aBJdapkFDMhHXi-200" vertex="1">
          <mxGeometry y="138" width="330" height="26" as="geometry" />
        </mxCell>
        <mxCell id="Y3LBO5aBJdapkFDMhHXi-207" value="+ DeleteTask(string) : void" style="text;strokeColor=none;fillColor=none;align=left;verticalAlign=top;spacingLeft=4;spacingRight=4;overflow=hidden;rotatable=0;points=[[0,0.5],[1,0.5]];portConstraint=eastwest;whiteSpace=wrap;html=1;" parent="Y3LBO5aBJdapkFDMhHXi-200" vertex="1">
          <mxGeometry y="164" width="330" height="26" as="geometry" />
        </mxCell>
        <mxCell id="Y3LBO5aBJdapkFDMhHXi-208" value="+ FindTasksByTitle(string) : Tasks" style="text;strokeColor=none;fillColor=none;align=left;verticalAlign=top;spacingLeft=4;spacingRight=4;overflow=hidden;rotatable=0;points=[[0,0.5],[1,0.5]];portConstraint=eastwest;whiteSpace=wrap;html=1;" parent="Y3LBO5aBJdapkFDMhHXi-200" vertex="1">
          <mxGeometry y="190" width="330" height="26" as="geometry" />
        </mxCell>
        <mxCell id="Y3LBO5aBJdapkFDMhHXi-209" value="+ ListAllTasks() : List&amp;lt;Tasks&amp;gt;" style="text;strokeColor=none;fillColor=none;align=left;verticalAlign=top;spacingLeft=4;spacingRight=4;overflow=hidden;rotatable=0;points=[[0,0.5],[1,0.5]];portConstraint=eastwest;whiteSpace=wrap;html=1;" parent="Y3LBO5aBJdapkFDMhHXi-200" vertex="1">
          <mxGeometry y="216" width="330" height="26" as="geometry" />
        </mxCell>
        <mxCell id="Y3LBO5aBJdapkFDMhHXi-210" value="+ ListIncompleteTasks() : List&amp;lt;Tasks&amp;gt;" style="text;strokeColor=none;fillColor=none;align=left;verticalAlign=top;spacingLeft=4;spacingRight=4;overflow=hidden;rotatable=0;points=[[0,0.5],[1,0.5]];portConstraint=eastwest;whiteSpace=wrap;html=1;" parent="Y3LBO5aBJdapkFDMhHXi-200" vertex="1">
          <mxGeometry y="242" width="330" height="26" as="geometry" />
        </mxCell>
        <mxCell id="Y3LBO5aBJdapkFDMhHXi-211" value="+ MarkTasksComplete(string) : void" style="text;strokeColor=none;fillColor=none;align=left;verticalAlign=top;spacingLeft=4;spacingRight=4;overflow=hidden;rotatable=0;points=[[0,0.5],[1,0.5]];portConstraint=eastwest;whiteSpace=wrap;html=1;" parent="Y3LBO5aBJdapkFDMhHXi-200" vertex="1">
          <mxGeometry y="268" width="330" height="26" as="geometry" />
        </mxCell>
        <mxCell id="Y3LBO5aBJdapkFDMhHXi-212" value="+ UpdateTask(string, string, string, string, DateTime?) : void" style="text;strokeColor=none;fillColor=none;align=left;verticalAlign=top;spacingLeft=4;spacingRight=4;overflow=hidden;rotatable=0;points=[[0,0.5],[1,0.5]];portConstraint=eastwest;whiteSpace=wrap;html=1;" parent="Y3LBO5aBJdapkFDMhHXi-200" vertex="1">
          <mxGeometry y="294" width="330" height="26" as="geometry" />
        </mxCell>
        <mxCell id="Y3LBO5aBJdapkFDMhHXi-213" value="" style="endArrow=block;dashed=1;endFill=0;endSize=12;html=1;rounded=0;exitX=0.5;exitY=0;exitDx=0;exitDy=0;entryX=0.5;entryY=1;entryDx=0;entryDy=0;" parent="Y3LBO5aBJdapkFDMhHXi-216" source="Y3LBO5aBJdapkFDMhHXi-200" target="Y3LBO5aBJdapkFDMhHXi-60" edge="1">
          <mxGeometry width="160" relative="1" as="geometry">
            <mxPoint x="150" y="310" as="sourcePoint" />
            <mxPoint x="-10" y="310" as="targetPoint" />
          </mxGeometry>
        </mxCell>
        <mxCell id="Y3LBO5aBJdapkFDMhHXi-123" value="" style="group" parent="Y3LBO5aBJdapkFDMhHXi-311" vertex="1" connectable="0">
          <mxGeometry x="510" y="864" width="275" height="286" as="geometry" />
        </mxCell>
        <mxCell id="Y3LBO5aBJdapkFDMhHXi-58" value="«interface»&lt;br&gt;&lt;b&gt;ICategoryService&lt;/b&gt;" style="html=1;whiteSpace=wrap;" parent="Y3LBO5aBJdapkFDMhHXi-123" vertex="1">
          <mxGeometry x="82.5" width="110" height="50" as="geometry" />
        </mxCell>
        <mxCell id="Y3LBO5aBJdapkFDMhHXi-99" value="CategoryService" style="swimlane;fontStyle=1;align=center;verticalAlign=top;childLayout=stackLayout;horizontal=1;startSize=26;horizontalStack=0;resizeParent=1;resizeParentMax=0;resizeLast=0;collapsible=1;marginBottom=0;whiteSpace=wrap;html=1;" parent="Y3LBO5aBJdapkFDMhHXi-123" vertex="1">
          <mxGeometry y="80" width="275" height="206" as="geometry" />
        </mxCell>
        <mxCell id="Y3LBO5aBJdapkFDMhHXi-108" value="- _formatter : IFormatter" style="text;strokeColor=none;fillColor=none;align=left;verticalAlign=top;spacingLeft=4;spacingRight=4;overflow=hidden;rotatable=0;points=[[0,0.5],[1,0.5]];portConstraint=eastwest;whiteSpace=wrap;html=1;" parent="Y3LBO5aBJdapkFDMhHXi-99" vertex="1">
          <mxGeometry y="26" width="275" height="26" as="geometry" />
        </mxCell>
        <mxCell id="Y3LBO5aBJdapkFDMhHXi-107" value="- _taskservice : ITaskService" style="text;strokeColor=none;fillColor=none;align=left;verticalAlign=top;spacingLeft=4;spacingRight=4;overflow=hidden;rotatable=0;points=[[0,0.5],[1,0.5]];portConstraint=eastwest;whiteSpace=wrap;html=1;" parent="Y3LBO5aBJdapkFDMhHXi-99" vertex="1">
          <mxGeometry y="52" width="275" height="26" as="geometry" />
        </mxCell>
        <mxCell id="Y3LBO5aBJdapkFDMhHXi-106" value="- _consolelogger : IConsolelogger" style="text;strokeColor=none;fillColor=none;align=left;verticalAlign=top;spacingLeft=4;spacingRight=4;overflow=hidden;rotatable=0;points=[[0,0.5],[1,0.5]];portConstraint=eastwest;whiteSpace=wrap;html=1;" parent="Y3LBO5aBJdapkFDMhHXi-99" vertex="1">
          <mxGeometry y="78" width="275" height="26" as="geometry" />
        </mxCell>
        <mxCell id="Y3LBO5aBJdapkFDMhHXi-100" value="- _filelogger : IFileLogger" style="text;strokeColor=none;fillColor=none;align=left;verticalAlign=top;spacingLeft=4;spacingRight=4;overflow=hidden;rotatable=0;points=[[0,0.5],[1,0.5]];portConstraint=eastwest;whiteSpace=wrap;html=1;" parent="Y3LBO5aBJdapkFDMhHXi-99" vertex="1">
          <mxGeometry y="104" width="275" height="26" as="geometry" />
        </mxCell>
        <mxCell id="Y3LBO5aBJdapkFDMhHXi-101" value="" style="line;strokeWidth=1;fillColor=none;align=left;verticalAlign=middle;spacingTop=-1;spacingLeft=3;spacingRight=3;rotatable=0;labelPosition=right;points=[];portConstraint=eastwest;strokeColor=inherit;" parent="Y3LBO5aBJdapkFDMhHXi-99" vertex="1">
          <mxGeometry y="130" width="275" height="8" as="geometry" />
        </mxCell>
        <mxCell id="Y3LBO5aBJdapkFDMhHXi-102" value="+ ChangeCategory(string, Category) : void" style="text;strokeColor=none;fillColor=none;align=left;verticalAlign=top;spacingLeft=4;spacingRight=4;overflow=hidden;rotatable=0;points=[[0,0.5],[1,0.5]];portConstraint=eastwest;whiteSpace=wrap;html=1;" parent="Y3LBO5aBJdapkFDMhHXi-99" vertex="1">
          <mxGeometry y="138" width="275" height="42" as="geometry" />
        </mxCell>
        <mxCell id="Y3LBO5aBJdapkFDMhHXi-109" value="+ ListTasksByCategory(Category) : List&amp;lt;Tasks&amp;gt;" style="text;strokeColor=none;fillColor=none;align=left;verticalAlign=top;spacingLeft=4;spacingRight=4;overflow=hidden;rotatable=0;points=[[0,0.5],[1,0.5]];portConstraint=eastwest;whiteSpace=wrap;html=1;" parent="Y3LBO5aBJdapkFDMhHXi-99" vertex="1">
          <mxGeometry y="180" width="275" height="26" as="geometry" />
        </mxCell>
        <mxCell id="Y3LBO5aBJdapkFDMhHXi-122" value="" style="endArrow=block;dashed=1;endFill=0;endSize=12;html=1;rounded=0;exitX=0.5;exitY=0;exitDx=0;exitDy=0;entryX=0.5;entryY=1;entryDx=0;entryDy=0;" parent="Y3LBO5aBJdapkFDMhHXi-123" source="Y3LBO5aBJdapkFDMhHXi-99" target="Y3LBO5aBJdapkFDMhHXi-58" edge="1">
          <mxGeometry width="160" relative="1" as="geometry">
            <mxPoint x="790" y="258" as="sourcePoint" />
            <mxPoint x="630" y="258" as="targetPoint" />
          </mxGeometry>
        </mxCell>
        <mxCell id="Y3LBO5aBJdapkFDMhHXi-186" value="" style="group" parent="Y3LBO5aBJdapkFDMhHXi-311" vertex="1" connectable="0">
          <mxGeometry x="1460" y="824" width="280" height="310" as="geometry" />
        </mxCell>
        <mxCell id="Y3LBO5aBJdapkFDMhHXi-61" value="«interface»&lt;br&gt;&lt;b&gt;IScheduleService&lt;/b&gt;" style="html=1;whiteSpace=wrap;" parent="Y3LBO5aBJdapkFDMhHXi-186" vertex="1">
          <mxGeometry x="85" width="110" height="50" as="geometry" />
        </mxCell>
        <mxCell id="Y3LBO5aBJdapkFDMhHXi-175" value="ScheduleService" style="swimlane;fontStyle=1;align=center;verticalAlign=top;childLayout=stackLayout;horizontal=1;startSize=26;horizontalStack=0;resizeParent=1;resizeParentMax=0;resizeLast=0;collapsible=1;marginBottom=0;whiteSpace=wrap;html=1;" parent="Y3LBO5aBJdapkFDMhHXi-186" vertex="1">
          <mxGeometry y="120" width="280" height="190" as="geometry" />
        </mxCell>
        <mxCell id="Y3LBO5aBJdapkFDMhHXi-176" value="- _formatter : IFormatter" style="text;strokeColor=none;fillColor=none;align=left;verticalAlign=top;spacingLeft=4;spacingRight=4;overflow=hidden;rotatable=0;points=[[0,0.5],[1,0.5]];portConstraint=eastwest;whiteSpace=wrap;html=1;" parent="Y3LBO5aBJdapkFDMhHXi-175" vertex="1">
          <mxGeometry y="26" width="280" height="26" as="geometry" />
        </mxCell>
        <mxCell id="Y3LBO5aBJdapkFDMhHXi-177" value="- _taskservice : ITaskService" style="text;strokeColor=none;fillColor=none;align=left;verticalAlign=top;spacingLeft=4;spacingRight=4;overflow=hidden;rotatable=0;points=[[0,0.5],[1,0.5]];portConstraint=eastwest;whiteSpace=wrap;html=1;" parent="Y3LBO5aBJdapkFDMhHXi-175" vertex="1">
          <mxGeometry y="52" width="280" height="26" as="geometry" />
        </mxCell>
        <mxCell id="Y3LBO5aBJdapkFDMhHXi-178" value="- _consolelogger : IConsoleLogger" style="text;strokeColor=none;fillColor=none;align=left;verticalAlign=top;spacingLeft=4;spacingRight=4;overflow=hidden;rotatable=0;points=[[0,0.5],[1,0.5]];portConstraint=eastwest;whiteSpace=wrap;html=1;" parent="Y3LBO5aBJdapkFDMhHXi-175" vertex="1">
          <mxGeometry y="78" width="280" height="26" as="geometry" />
        </mxCell>
        <mxCell id="Y3LBO5aBJdapkFDMhHXi-179" value="- _filelogger : IFileLogger" style="text;strokeColor=none;fillColor=none;align=left;verticalAlign=top;spacingLeft=4;spacingRight=4;overflow=hidden;rotatable=0;points=[[0,0.5],[1,0.5]];portConstraint=eastwest;whiteSpace=wrap;html=1;" parent="Y3LBO5aBJdapkFDMhHXi-175" vertex="1">
          <mxGeometry y="104" width="280" height="26" as="geometry" />
        </mxCell>
        <mxCell id="Y3LBO5aBJdapkFDMhHXi-180" value="" style="line;strokeWidth=1;fillColor=none;align=left;verticalAlign=middle;spacingTop=-1;spacingLeft=3;spacingRight=3;rotatable=0;labelPosition=right;points=[];portConstraint=eastwest;strokeColor=inherit;" parent="Y3LBO5aBJdapkFDMhHXi-175" vertex="1">
          <mxGeometry y="130" width="280" height="8" as="geometry" />
        </mxCell>
        <mxCell id="Y3LBO5aBJdapkFDMhHXi-181" value="+ ChangeSchedule(string, Schedule) : void" style="text;strokeColor=none;fillColor=none;align=left;verticalAlign=top;spacingLeft=4;spacingRight=4;overflow=hidden;rotatable=0;points=[[0,0.5],[1,0.5]];portConstraint=eastwest;whiteSpace=wrap;html=1;" parent="Y3LBO5aBJdapkFDMhHXi-175" vertex="1">
          <mxGeometry y="138" width="280" height="26" as="geometry" />
        </mxCell>
        <mxCell id="Y3LBO5aBJdapkFDMhHXi-182" value="+ ListTasksBySchedule(Schedule) : List&amp;lt;Tasks&amp;gt;" style="text;strokeColor=none;fillColor=none;align=left;verticalAlign=top;spacingLeft=4;spacingRight=4;overflow=hidden;rotatable=0;points=[[0,0.5],[1,0.5]];portConstraint=eastwest;whiteSpace=wrap;html=1;" parent="Y3LBO5aBJdapkFDMhHXi-175" vertex="1">
          <mxGeometry y="164" width="280" height="26" as="geometry" />
        </mxCell>
        <mxCell id="Y3LBO5aBJdapkFDMhHXi-183" value="" style="endArrow=block;dashed=1;endFill=0;endSize=12;html=1;rounded=0;exitX=0.5;exitY=0;exitDx=0;exitDy=0;entryX=0.5;entryY=1;entryDx=0;entryDy=0;" parent="Y3LBO5aBJdapkFDMhHXi-186" source="Y3LBO5aBJdapkFDMhHXi-175" target="Y3LBO5aBJdapkFDMhHXi-61" edge="1">
          <mxGeometry width="160" relative="1" as="geometry">
            <mxPoint x="730" y="-10" as="sourcePoint" />
            <mxPoint x="570" y="-10" as="targetPoint" />
          </mxGeometry>
        </mxCell>
        <mxCell id="Y3LBO5aBJdapkFDMhHXi-171" value="" style="group" parent="Y3LBO5aBJdapkFDMhHXi-311" vertex="1" connectable="0">
          <mxGeometry x="1170" y="834" width="242.5" height="290" as="geometry" />
        </mxCell>
        <mxCell id="Y3LBO5aBJdapkFDMhHXi-62" value="«interface»&lt;br&gt;&lt;b&gt;IPriorityService&lt;/b&gt;" style="html=1;whiteSpace=wrap;" parent="Y3LBO5aBJdapkFDMhHXi-171" vertex="1">
          <mxGeometry x="66.25" width="110" height="50" as="geometry" />
        </mxCell>
        <mxCell id="Y3LBO5aBJdapkFDMhHXi-79" value="PriorityService" style="swimlane;fontStyle=1;align=center;verticalAlign=top;childLayout=stackLayout;horizontal=1;startSize=26;horizontalStack=0;resizeParent=1;resizeParentMax=0;resizeLast=0;collapsible=1;marginBottom=0;whiteSpace=wrap;html=1;" parent="Y3LBO5aBJdapkFDMhHXi-171" vertex="1">
          <mxGeometry y="100" width="242.5" height="190" as="geometry" />
        </mxCell>
        <mxCell id="Y3LBO5aBJdapkFDMhHXi-166" value="- _formatter : IFormatter" style="text;strokeColor=none;fillColor=none;align=left;verticalAlign=top;spacingLeft=4;spacingRight=4;overflow=hidden;rotatable=0;points=[[0,0.5],[1,0.5]];portConstraint=eastwest;whiteSpace=wrap;html=1;" parent="Y3LBO5aBJdapkFDMhHXi-79" vertex="1">
          <mxGeometry y="26" width="242.5" height="26" as="geometry" />
        </mxCell>
        <mxCell id="Y3LBO5aBJdapkFDMhHXi-167" value="- _taskservice : ITaskService" style="text;strokeColor=none;fillColor=none;align=left;verticalAlign=top;spacingLeft=4;spacingRight=4;overflow=hidden;rotatable=0;points=[[0,0.5],[1,0.5]];portConstraint=eastwest;whiteSpace=wrap;html=1;" parent="Y3LBO5aBJdapkFDMhHXi-79" vertex="1">
          <mxGeometry y="52" width="242.5" height="26" as="geometry" />
        </mxCell>
        <mxCell id="Y3LBO5aBJdapkFDMhHXi-168" value="- _consolelogger : IConsoleLogger" style="text;strokeColor=none;fillColor=none;align=left;verticalAlign=top;spacingLeft=4;spacingRight=4;overflow=hidden;rotatable=0;points=[[0,0.5],[1,0.5]];portConstraint=eastwest;whiteSpace=wrap;html=1;" parent="Y3LBO5aBJdapkFDMhHXi-79" vertex="1">
          <mxGeometry y="78" width="242.5" height="26" as="geometry" />
        </mxCell>
        <mxCell id="Y3LBO5aBJdapkFDMhHXi-80" value="- _filelogger : IFileLogger" style="text;strokeColor=none;fillColor=none;align=left;verticalAlign=top;spacingLeft=4;spacingRight=4;overflow=hidden;rotatable=0;points=[[0,0.5],[1,0.5]];portConstraint=eastwest;whiteSpace=wrap;html=1;" parent="Y3LBO5aBJdapkFDMhHXi-79" vertex="1">
          <mxGeometry y="104" width="242.5" height="26" as="geometry" />
        </mxCell>
        <mxCell id="Y3LBO5aBJdapkFDMhHXi-81" value="" style="line;strokeWidth=1;fillColor=none;align=left;verticalAlign=middle;spacingTop=-1;spacingLeft=3;spacingRight=3;rotatable=0;labelPosition=right;points=[];portConstraint=eastwest;strokeColor=inherit;" parent="Y3LBO5aBJdapkFDMhHXi-79" vertex="1">
          <mxGeometry y="130" width="242.5" height="8" as="geometry" />
        </mxCell>
        <mxCell id="Y3LBO5aBJdapkFDMhHXi-82" value="+ ChangePriority(string, Priority) : void" style="text;strokeColor=none;fillColor=none;align=left;verticalAlign=top;spacingLeft=4;spacingRight=4;overflow=hidden;rotatable=0;points=[[0,0.5],[1,0.5]];portConstraint=eastwest;whiteSpace=wrap;html=1;" parent="Y3LBO5aBJdapkFDMhHXi-79" vertex="1">
          <mxGeometry y="138" width="242.5" height="26" as="geometry" />
        </mxCell>
        <mxCell id="Y3LBO5aBJdapkFDMhHXi-169" value="+ ListTasksByPriority(Priority) : List&amp;lt;Tasks&amp;gt;" style="text;strokeColor=none;fillColor=none;align=left;verticalAlign=top;spacingLeft=4;spacingRight=4;overflow=hidden;rotatable=0;points=[[0,0.5],[1,0.5]];portConstraint=eastwest;whiteSpace=wrap;html=1;" parent="Y3LBO5aBJdapkFDMhHXi-79" vertex="1">
          <mxGeometry y="164" width="242.5" height="26" as="geometry" />
        </mxCell>
        <mxCell id="Y3LBO5aBJdapkFDMhHXi-170" value="" style="endArrow=block;dashed=1;endFill=0;endSize=12;html=1;rounded=0;entryX=0.5;entryY=1;entryDx=0;entryDy=0;exitX=0.5;exitY=0;exitDx=0;exitDy=0;" parent="Y3LBO5aBJdapkFDMhHXi-171" source="Y3LBO5aBJdapkFDMhHXi-79" target="Y3LBO5aBJdapkFDMhHXi-62" edge="1">
          <mxGeometry width="160" relative="1" as="geometry">
            <mxPoint x="458.75" y="210" as="sourcePoint" />
            <mxPoint x="298.75" y="210" as="targetPoint" />
          </mxGeometry>
        </mxCell>
        <mxCell id="Y3LBO5aBJdapkFDMhHXi-231" value="" style="group" parent="Y3LBO5aBJdapkFDMhHXi-311" vertex="1" connectable="0">
          <mxGeometry x="380" y="364" width="390" height="104" as="geometry" />
        </mxCell>
        <mxCell id="Y3LBO5aBJdapkFDMhHXi-66" value="«interface»&lt;br&gt;&lt;b&gt;IConsoleLogger&lt;/b&gt;" style="html=1;whiteSpace=wrap;" parent="Y3LBO5aBJdapkFDMhHXi-231" vertex="1">
          <mxGeometry x="280" y="30" width="110" height="50" as="geometry" />
        </mxCell>
        <mxCell id="Y3LBO5aBJdapkFDMhHXi-95" value="ConsoleLogger" style="swimlane;fontStyle=1;align=center;verticalAlign=top;childLayout=stackLayout;horizontal=1;startSize=26;horizontalStack=0;resizeParent=1;resizeParentMax=0;resizeLast=0;collapsible=1;marginBottom=0;whiteSpace=wrap;html=1;" parent="Y3LBO5aBJdapkFDMhHXi-231" vertex="1">
          <mxGeometry width="160" height="104" as="geometry" />
        </mxCell>
        <mxCell id="Y3LBO5aBJdapkFDMhHXi-98" value="+ Error(string) : void" style="text;strokeColor=none;fillColor=none;align=left;verticalAlign=top;spacingLeft=4;spacingRight=4;overflow=hidden;rotatable=0;points=[[0,0.5],[1,0.5]];portConstraint=eastwest;whiteSpace=wrap;html=1;" parent="Y3LBO5aBJdapkFDMhHXi-95" vertex="1">
          <mxGeometry y="26" width="160" height="26" as="geometry" />
        </mxCell>
        <mxCell id="Y3LBO5aBJdapkFDMhHXi-124" value="+ Log(string) : void" style="text;strokeColor=none;fillColor=none;align=left;verticalAlign=top;spacingLeft=4;spacingRight=4;overflow=hidden;rotatable=0;points=[[0,0.5],[1,0.5]];portConstraint=eastwest;whiteSpace=wrap;html=1;" parent="Y3LBO5aBJdapkFDMhHXi-95" vertex="1">
          <mxGeometry y="52" width="160" height="26" as="geometry" />
        </mxCell>
        <mxCell id="Y3LBO5aBJdapkFDMhHXi-125" value="+ Warn(string) : void" style="text;strokeColor=none;fillColor=none;align=left;verticalAlign=top;spacingLeft=4;spacingRight=4;overflow=hidden;rotatable=0;points=[[0,0.5],[1,0.5]];portConstraint=eastwest;whiteSpace=wrap;html=1;" parent="Y3LBO5aBJdapkFDMhHXi-95" vertex="1">
          <mxGeometry y="78" width="160" height="26" as="geometry" />
        </mxCell>
        <mxCell id="Y3LBO5aBJdapkFDMhHXi-126" value="" style="endArrow=block;dashed=1;endFill=0;endSize=12;html=1;rounded=0;entryX=0;entryY=0.5;entryDx=0;entryDy=0;exitX=1.003;exitY=0.159;exitDx=0;exitDy=0;exitPerimeter=0;" parent="Y3LBO5aBJdapkFDMhHXi-231" source="Y3LBO5aBJdapkFDMhHXi-95" target="Y3LBO5aBJdapkFDMhHXi-66" edge="1">
          <mxGeometry width="160" relative="1" as="geometry">
            <mxPoint x="635" y="250" as="sourcePoint" />
            <mxPoint x="475" y="250" as="targetPoint" />
          </mxGeometry>
        </mxCell>
        <mxCell id="Y3LBO5aBJdapkFDMhHXi-246" value="" style="group" parent="Y3LBO5aBJdapkFDMhHXi-311" vertex="1" connectable="0">
          <mxGeometry x="220" y="570" width="417.5" height="190" as="geometry" />
        </mxCell>
        <mxCell id="Y3LBO5aBJdapkFDMhHXi-65" value="«interface»&lt;br&gt;&lt;b&gt;IFileLogger&lt;/b&gt;" style="html=1;whiteSpace=wrap;" parent="Y3LBO5aBJdapkFDMhHXi-246" vertex="1">
          <mxGeometry x="307.5" y="14" width="110" height="50" as="geometry" />
        </mxCell>
        <mxCell id="Y3LBO5aBJdapkFDMhHXi-91" value="FileLogger" style="swimlane;fontStyle=1;align=center;verticalAlign=top;childLayout=stackLayout;horizontal=1;startSize=26;horizontalStack=0;resizeParent=1;resizeParentMax=0;resizeLast=0;collapsible=1;marginBottom=0;whiteSpace=wrap;html=1;" parent="Y3LBO5aBJdapkFDMhHXi-246" vertex="1">
          <mxGeometry width="215" height="190" as="geometry" />
        </mxCell>
        <mxCell id="Y3LBO5aBJdapkFDMhHXi-92" value="+ path : string" style="text;strokeColor=none;fillColor=none;align=left;verticalAlign=top;spacingLeft=4;spacingRight=4;overflow=hidden;rotatable=0;points=[[0,0.5],[1,0.5]];portConstraint=eastwest;whiteSpace=wrap;html=1;" parent="Y3LBO5aBJdapkFDMhHXi-91" vertex="1">
          <mxGeometry y="26" width="215" height="26" as="geometry" />
        </mxCell>
        <mxCell id="Y3LBO5aBJdapkFDMhHXi-128" value="+ directory : string" style="text;strokeColor=none;fillColor=none;align=left;verticalAlign=top;spacingLeft=4;spacingRight=4;overflow=hidden;rotatable=0;points=[[0,0.5],[1,0.5]];portConstraint=eastwest;whiteSpace=wrap;html=1;" parent="Y3LBO5aBJdapkFDMhHXi-91" vertex="1">
          <mxGeometry y="52" width="215" height="26" as="geometry" />
        </mxCell>
        <mxCell id="Y3LBO5aBJdapkFDMhHXi-93" value="" style="line;strokeWidth=1;fillColor=none;align=left;verticalAlign=middle;spacingTop=-1;spacingLeft=3;spacingRight=3;rotatable=0;labelPosition=right;points=[];portConstraint=eastwest;strokeColor=inherit;" parent="Y3LBO5aBJdapkFDMhHXi-91" vertex="1">
          <mxGeometry y="78" width="215" height="8" as="geometry" />
        </mxCell>
        <mxCell id="Y3LBO5aBJdapkFDMhHXi-94" value="+ Error(string) : void" style="text;strokeColor=none;fillColor=none;align=left;verticalAlign=top;spacingLeft=4;spacingRight=4;overflow=hidden;rotatable=0;points=[[0,0.5],[1,0.5]];portConstraint=eastwest;whiteSpace=wrap;html=1;" parent="Y3LBO5aBJdapkFDMhHXi-91" vertex="1">
          <mxGeometry y="86" width="215" height="26" as="geometry" />
        </mxCell>
        <mxCell id="Y3LBO5aBJdapkFDMhHXi-129" value="+ Log(string) : void" style="text;strokeColor=none;fillColor=none;align=left;verticalAlign=top;spacingLeft=4;spacingRight=4;overflow=hidden;rotatable=0;points=[[0,0.5],[1,0.5]];portConstraint=eastwest;whiteSpace=wrap;html=1;" parent="Y3LBO5aBJdapkFDMhHXi-91" vertex="1">
          <mxGeometry y="112" width="215" height="26" as="geometry" />
        </mxCell>
        <mxCell id="Y3LBO5aBJdapkFDMhHXi-130" value="+ Warn(string) : void" style="text;strokeColor=none;fillColor=none;align=left;verticalAlign=top;spacingLeft=4;spacingRight=4;overflow=hidden;rotatable=0;points=[[0,0.5],[1,0.5]];portConstraint=eastwest;whiteSpace=wrap;html=1;" parent="Y3LBO5aBJdapkFDMhHXi-91" vertex="1">
          <mxGeometry y="138" width="215" height="26" as="geometry" />
        </mxCell>
        <mxCell id="Y3LBO5aBJdapkFDMhHXi-131" value="+ WriteText(FileStream, string, string)" style="text;strokeColor=none;fillColor=none;align=left;verticalAlign=top;spacingLeft=4;spacingRight=4;overflow=hidden;rotatable=0;points=[[0,0.5],[1,0.5]];portConstraint=eastwest;whiteSpace=wrap;html=1;" parent="Y3LBO5aBJdapkFDMhHXi-91" vertex="1">
          <mxGeometry y="164" width="215" height="26" as="geometry" />
        </mxCell>
        <mxCell id="Y3LBO5aBJdapkFDMhHXi-132" value="" style="endArrow=block;dashed=1;endFill=0;endSize=12;html=1;rounded=0;exitX=1;exitY=0.5;exitDx=0;exitDy=0;entryX=0;entryY=0.5;entryDx=0;entryDy=0;" parent="Y3LBO5aBJdapkFDMhHXi-246" source="Y3LBO5aBJdapkFDMhHXi-92" target="Y3LBO5aBJdapkFDMhHXi-65" edge="1">
          <mxGeometry width="160" relative="1" as="geometry">
            <mxPoint x="392.5" y="74" as="sourcePoint" />
            <mxPoint x="107.5" y="-66" as="targetPoint" />
          </mxGeometry>
        </mxCell>
        <mxCell id="Y3LBO5aBJdapkFDMhHXi-236" style="edgeStyle=none;rounded=0;orthogonalLoop=1;jettySize=auto;html=1;exitX=0;exitY=0.5;exitDx=0;exitDy=0;entryX=0.5;entryY=0;entryDx=0;entryDy=0;" parent="Y3LBO5aBJdapkFDMhHXi-311" source="Y3LBO5aBJdapkFDMhHXi-212" target="Y3LBO5aBJdapkFDMhHXi-59" edge="1">
          <mxGeometry relative="1" as="geometry">
            <mxPoint x="1600" y="674" as="sourcePoint" />
          </mxGeometry>
        </mxCell>
        <mxCell id="Y3LBO5aBJdapkFDMhHXi-244" style="edgeStyle=none;rounded=0;orthogonalLoop=1;jettySize=auto;html=1;entryX=1;entryY=0.5;entryDx=0;entryDy=0;exitX=0.011;exitY=0.047;exitDx=0;exitDy=0;exitPerimeter=0;" parent="Y3LBO5aBJdapkFDMhHXi-311" source="Y3LBO5aBJdapkFDMhHXi-200" target="Y3LBO5aBJdapkFDMhHXi-64" edge="1">
          <mxGeometry relative="1" as="geometry">
            <mxPoint x="1447" y="354" as="sourcePoint" />
          </mxGeometry>
        </mxCell>
        <mxCell id="Y3LBO5aBJdapkFDMhHXi-237" style="edgeStyle=none;rounded=0;orthogonalLoop=1;jettySize=auto;html=1;exitX=0;exitY=0.5;exitDx=0;exitDy=0;entryX=0.5;entryY=0;entryDx=0;entryDy=0;" parent="Y3LBO5aBJdapkFDMhHXi-311" source="Y3LBO5aBJdapkFDMhHXi-212" target="Y3LBO5aBJdapkFDMhHXi-58" edge="1">
          <mxGeometry relative="1" as="geometry" />
        </mxCell>
        <mxCell id="Y3LBO5aBJdapkFDMhHXi-233" style="edgeStyle=none;rounded=0;orthogonalLoop=1;jettySize=auto;html=1;exitX=0.441;exitY=1.013;exitDx=0;exitDy=0;entryX=0.5;entryY=0;entryDx=0;entryDy=0;exitPerimeter=0;" parent="Y3LBO5aBJdapkFDMhHXi-311" source="Y3LBO5aBJdapkFDMhHXi-212" target="Y3LBO5aBJdapkFDMhHXi-61" edge="1">
          <mxGeometry relative="1" as="geometry" />
        </mxCell>
        <mxCell id="Y3LBO5aBJdapkFDMhHXi-235" style="edgeStyle=none;rounded=0;orthogonalLoop=1;jettySize=auto;html=1;exitX=0;exitY=0.5;exitDx=0;exitDy=0;entryX=0.5;entryY=0;entryDx=0;entryDy=0;" parent="Y3LBO5aBJdapkFDMhHXi-311" source="Y3LBO5aBJdapkFDMhHXi-212" target="Y3LBO5aBJdapkFDMhHXi-62" edge="1">
          <mxGeometry relative="1" as="geometry" />
        </mxCell>
        <mxCell id="Y3LBO5aBJdapkFDMhHXi-232" style="edgeStyle=none;rounded=0;orthogonalLoop=1;jettySize=auto;html=1;exitX=1;exitY=0.5;exitDx=0;exitDy=0;entryX=0;entryY=0.5;entryDx=0;entryDy=0;" parent="Y3LBO5aBJdapkFDMhHXi-311" source="Y3LBO5aBJdapkFDMhHXi-66" target="Y3LBO5aBJdapkFDMhHXi-203" edge="1">
          <mxGeometry relative="1" as="geometry" />
        </mxCell>
        <mxCell id="Y3LBO5aBJdapkFDMhHXi-243" style="edgeStyle=none;rounded=0;orthogonalLoop=1;jettySize=auto;html=1;exitX=1;exitY=0.5;exitDx=0;exitDy=0;entryX=0;entryY=0.5;entryDx=0;entryDy=0;" parent="Y3LBO5aBJdapkFDMhHXi-311" source="Y3LBO5aBJdapkFDMhHXi-65" target="Y3LBO5aBJdapkFDMhHXi-204" edge="1">
          <mxGeometry relative="1" as="geometry" />
        </mxCell>
        <mxCell id="Y3LBO5aBJdapkFDMhHXi-251" value="" style="group" parent="Y3LBO5aBJdapkFDMhHXi-311" vertex="1" connectable="0">
          <mxGeometry x="1760" y="702" width="160" height="182" as="geometry" />
        </mxCell>
        <mxCell id="Y3LBO5aBJdapkFDMhHXi-83" value="Formatter" style="swimlane;fontStyle=1;align=center;verticalAlign=top;childLayout=stackLayout;horizontal=1;startSize=26;horizontalStack=0;resizeParent=1;resizeParentMax=0;resizeLast=0;collapsible=1;marginBottom=0;whiteSpace=wrap;html=1;" parent="Y3LBO5aBJdapkFDMhHXi-251" vertex="1">
          <mxGeometry width="160" height="52" as="geometry" />
        </mxCell>
        <mxCell id="Y3LBO5aBJdapkFDMhHXi-86" value="+ Format(Tasks) : string" style="text;strokeColor=none;fillColor=none;align=left;verticalAlign=top;spacingLeft=4;spacingRight=4;overflow=hidden;rotatable=0;points=[[0,0.5],[1,0.5]];portConstraint=eastwest;whiteSpace=wrap;html=1;" parent="Y3LBO5aBJdapkFDMhHXi-83" vertex="1">
          <mxGeometry y="26" width="160" height="26" as="geometry" />
        </mxCell>
        <mxCell id="Y3LBO5aBJdapkFDMhHXi-163" value="" style="endArrow=block;dashed=1;endFill=0;endSize=12;html=1;rounded=0;entryX=0.5;entryY=0;entryDx=0;entryDy=0;exitX=0.519;exitY=1.183;exitDx=0;exitDy=0;exitPerimeter=0;" parent="Y3LBO5aBJdapkFDMhHXi-251" source="Y3LBO5aBJdapkFDMhHXi-86" target="Y3LBO5aBJdapkFDMhHXi-63" edge="1">
          <mxGeometry width="160" relative="1" as="geometry">
            <mxPoint x="390" y="382" as="sourcePoint" />
            <mxPoint x="230" y="382" as="targetPoint" />
          </mxGeometry>
        </mxCell>
        <mxCell id="Y3LBO5aBJdapkFDMhHXi-63" value="«interface»&lt;br&gt;&lt;b&gt;IFormatter&lt;/b&gt;" style="html=1;whiteSpace=wrap;" parent="Y3LBO5aBJdapkFDMhHXi-251" vertex="1">
          <mxGeometry x="25" y="132" width="110" height="50" as="geometry" />
        </mxCell>
        <mxCell id="Y3LBO5aBJdapkFDMhHXi-312" style="edgeStyle=none;rounded=0;orthogonalLoop=1;jettySize=auto;html=1;exitX=-0.003;exitY=0.608;exitDx=0;exitDy=0;exitPerimeter=0;" parent="1" source="Y3LBO5aBJdapkFDMhHXi-25" target="Y3LBO5aBJdapkFDMhHXi-57" edge="1">
          <mxGeometry relative="1" as="geometry" />
        </mxCell>
        <mxCell id="Y3LBO5aBJdapkFDMhHXi-309" style="edgeStyle=none;rounded=0;orthogonalLoop=1;jettySize=auto;html=1;exitX=1.003;exitY=0.754;exitDx=0;exitDy=0;exitPerimeter=0;" parent="1" source="Y3LBO5aBJdapkFDMhHXi-57" target="Y3LBO5aBJdapkFDMhHXi-252" edge="1">
          <mxGeometry relative="1" as="geometry" />
        </mxCell>
        <mxCell id="Y3LBO5aBJdapkFDMhHXi-310" style="edgeStyle=none;rounded=0;orthogonalLoop=1;jettySize=auto;html=1;exitX=0.508;exitY=1.005;exitDx=0;exitDy=0;exitPerimeter=0;" parent="1" source="Y3LBO5aBJdapkFDMhHXi-25" target="Y3LBO5aBJdapkFDMhHXi-252" edge="1">
          <mxGeometry relative="1" as="geometry" />
        </mxCell>
        <mxCell id="Y3LBO5aBJdapkFDMhHXi-313" value="Program" style="swimlane;fontStyle=1;align=center;verticalAlign=top;childLayout=stackLayout;horizontal=1;startSize=26;horizontalStack=0;resizeParent=1;resizeParentMax=0;resizeLast=0;collapsible=1;marginBottom=0;whiteSpace=wrap;html=1;" parent="1" vertex="1">
          <mxGeometry x="260" y="2510" width="180" height="130" as="geometry" />
        </mxCell>
        <mxCell id="Y3LBO5aBJdapkFDMhHXi-316" value="- Main(string[])&lt;span style=&quot;white-space: pre;&quot;&gt;&#x9;&lt;/span&gt;&amp;nbsp;: void" style="text;strokeColor=none;fillColor=none;align=left;verticalAlign=top;spacingLeft=4;spacingRight=4;overflow=hidden;rotatable=0;points=[[0,0.5],[1,0.5]];portConstraint=eastwest;whiteSpace=wrap;html=1;" parent="Y3LBO5aBJdapkFDMhHXi-313" vertex="1">
          <mxGeometry y="26" width="180" height="26" as="geometry" />
        </mxCell>
        <mxCell id="Y3LBO5aBJdapkFDMhHXi-317" value="+ CreateFile() : void" style="text;strokeColor=none;fillColor=none;align=left;verticalAlign=top;spacingLeft=4;spacingRight=4;overflow=hidden;rotatable=0;points=[[0,0.5],[1,0.5]];portConstraint=eastwest;whiteSpace=wrap;html=1;" parent="Y3LBO5aBJdapkFDMhHXi-313" vertex="1">
          <mxGeometry y="52" width="180" height="26" as="geometry" />
        </mxCell>
        <mxCell id="Y3LBO5aBJdapkFDMhHXi-318" value="+ CreateDirectory : void" style="text;strokeColor=none;fillColor=none;align=left;verticalAlign=top;spacingLeft=4;spacingRight=4;overflow=hidden;rotatable=0;points=[[0,0.5],[1,0.5]];portConstraint=eastwest;whiteSpace=wrap;html=1;" parent="Y3LBO5aBJdapkFDMhHXi-313" vertex="1">
          <mxGeometry y="78" width="180" height="26" as="geometry" />
        </mxCell>
        <mxCell id="Y3LBO5aBJdapkFDMhHXi-319" value="+ IfFileExists(num, path) : int" style="text;strokeColor=none;fillColor=none;align=left;verticalAlign=top;spacingLeft=4;spacingRight=4;overflow=hidden;rotatable=0;points=[[0,0.5],[1,0.5]];portConstraint=eastwest;whiteSpace=wrap;html=1;" parent="Y3LBO5aBJdapkFDMhHXi-313" vertex="1">
          <mxGeometry y="104" width="180" height="26" as="geometry" />
        </mxCell>
        <mxCell id="Y3LBO5aBJdapkFDMhHXi-320" style="edgeStyle=none;rounded=0;orthogonalLoop=1;jettySize=auto;html=1;exitX=0.284;exitY=1.002;exitDx=0;exitDy=0;exitPerimeter=0;" parent="1" source="Y3LBO5aBJdapkFDMhHXi-252" target="Y3LBO5aBJdapkFDMhHXi-313" edge="1">
          <mxGeometry relative="1" as="geometry" />
        </mxCell>
        <mxCell id="Y3LBO5aBJdapkFDMhHXi-324" value="Console" style="shape=umlFrame;whiteSpace=wrap;html=1;pointerEvents=0;recursiveResize=0;container=1;collapsible=0;width=160;" parent="1" vertex="1">
          <mxGeometry x="140" y="2470" width="380" height="190" as="geometry" />
        </mxCell>
        <mxCell id="RhjHNI2Za4ZmFcdqXSZ0-2" style="rounded=0;orthogonalLoop=1;jettySize=auto;html=1;exitX=1;exitY=0.5;exitDx=0;exitDy=0;entryX=0;entryY=0;entryDx=0;entryDy=0;" edge="1" parent="1" source="Y3LBO5aBJdapkFDMhHXi-63" target="Y3LBO5aBJdapkFDMhHXi-257">
          <mxGeometry relative="1" as="geometry" />
        </mxCell>
      </root>
    </mxGraphModel>
  </diagram>
</mxfile>
